<?xml version="1.0" encoding="UTF-8"?>
<!DOCTYPE score-partwise PUBLIC "-//Recordare//DTD MusicXML 2.0 Partwise//EN"
                                "http://www.musicxml.org/dtds/partwise.dtd">
<score-partwise version="2.0">
  <movement-title>260</movement-title>
  <identification>
    <rights>©</rights>
    <encoding>
      <software>Finale 2010 for Windows</software>
      <software>Dolet Light for Finale 2010</software>
      <encoding-date>2009-11-16</encoding-date>
      <supports attribute="new-system" element="print" type="yes" value="yes"/>
      <supports attribute="new-page" element="print" type="yes" value="yes"/>
    </encoding>
  </identification>
  <defaults>
    <scaling>
      <millimeters>7.2319</millimeters>
      <tenths>40</tenths>
    </scaling>
    <page-layout>
      <page-height>1545</page-height>
      <page-width>1194</page-width>
      <page-margins type="both">
        <left-margin>140</left-margin>
        <right-margin>70</right-margin>
        <top-margin>88</top-margin>
        <bottom-margin>88</bottom-margin>
      </page-margins>
    </page-layout>
    <system-layout>
      <system-margins>
        <left-margin>0</left-margin>
        <right-margin>0</right-margin>
      </system-margins>
      <system-distance>121</system-distance>
      <top-system-distance>70</top-system-distance>
    </system-layout>
    <staff-layout>
      <staff-distance>80</staff-distance>
    </staff-layout>
    <appearance>
      <line-width type="stem">0.7487</line-width>
      <line-width type="beam">5</line-width>
      <line-width type="staff">0.7487</line-width>
      <line-width type="light barline">0.7487</line-width>
      <line-width type="heavy barline">5</line-width>
      <line-width type="leger">0.7487</line-width>
      <line-width type="ending">1.4583</line-width>
      <line-width type="wedge">0.7487</line-width>
      <line-width type="enclosure">0.7487</line-width>
      <line-width type="tuplet bracket">0.7487</line-width>
      <note-size type="grace">60</note-size>
      <note-size type="cue">60</note-size>
    </appearance>
    <music-font font-family="Maestro" font-size="20.5"/>
    <word-font font-family="Times New Roman" font-size="10.25"/>
  </defaults>
  <credit page="1">
    <credit-words default-x="632" default-y="1458" font-size="24" font-weight="bold" justify="center" valign="top">260</credit-words>
  </credit>
  <credit page="1">
    <credit-words default-x="632" default-y="70" font-size="10" justify="center" valign="bottom">©</credit-words>
  </credit>
  <part-list>
    <score-part id="P1">
      <part-name print-object="no">MusicXML Part</part-name>
      <score-instrument id="P1-I1">
        <instrument-name>Acoustic Grand Piano</instrument-name>
      </score-instrument>
      <midi-instrument id="P1-I1">
        <midi-channel>1</midi-channel>
        <midi-program>1</midi-program>
        <volume>80</volume>
        <pan>0</pan>
      </midi-instrument>
    </score-part>
  </part-list>
  <!--=========================================================-->
  <part id="P1">
    <measure number="1" width="382">
      <print>
        <system-layout>
          <top-system-distance>211</top-system-distance>
        </system-layout>
      </print>
      <attributes>
        <divisions>1024</divisions>
        <key>
          <fifths>-1</fifths>
          <mode>minor</mode>
        </key>
        <time symbol="common">
          <beats>4</beats>
          <beat-type>4</beat-type>
        </time>
        <staves>2</staves>
        <clef number="1">
          <sign>F</sign>
          <line>4</line>
        </clef>
        <clef number="2">
          <sign>F</sign>
          <line>4</line>
        </clef>
      </attributes>
      <sound tempo="40"/>
      <direction placement="below">
        <direction-type>
          <dynamics default-x="101" default-y="-73">
            <p/>
          </dynamics>
        </direction-type>
        <staff>1</staff>
        <sound dynamics="54"/>
      </direction>
      <note default-x="110">
        <pitch>
          <step>D</step>
          <octave>3</octave>
        </pitch>
        <duration>1536</duration>
        <voice>1</voice>
        <type>quarter</type>
        <dot/>
        <stem default-y="-55">down</stem>
        <staff>1</staff>
        <notations>
          <slur number="1" placement="above" type="start"/>
        </notations>
      </note>
      <note default-x="201">
        <pitch>
          <step>C</step>
          <alter>1</alter>
          <octave>3</octave>
        </pitch>
        <duration>512</duration>
        <voice>1</voice>
        <type>eighth</type>
        <accidental>sharp</accidental>
        <stem default-y="10.5">up</stem>
        <staff>1</staff>
        <notations>
          <slur number="1" type="stop"/>
        </notations>
      </note>
      <note default-x="244">
        <pitch>
          <step>F</step>
          <octave>3</octave>
        </pitch>
        <duration>1024</duration>
        <voice>1</voice>
        <type>quarter</type>
        <stem default-y="-45">down</stem>
        <staff>1</staff>
      </note>
      <note default-x="312">
        <rest/>
        <duration>1024</duration>
        <voice>1</voice>
        <type>quarter</type>
        <staff>1</staff>
      </note>
      <backup>
        <duration>4096</duration>
      </backup>
      <note default-x="110">
        <pitch>
          <step>D</step>
          <octave>2</octave>
        </pitch>
        <duration>1536</duration>
        <voice>4</voice>
        <type>quarter</type>
        <dot/>
        <stem default-y="-20">up</stem>
        <staff>2</staff>
        <notations>
          <slur number="1" placement="below" type="start"/>
        </notations>
      </note>
      <note default-x="201">
        <pitch>
          <step>C</step>
          <alter>1</alter>
          <octave>2</octave>
        </pitch>
        <duration>512</duration>
        <voice>4</voice>
        <type>eighth</type>
        <accidental>sharp</accidental>
        <stem default-y="-20">up</stem>
        <staff>2</staff>
        <notations>
          <slur number="1" type="stop"/>
        </notations>
      </note>
      <note default-x="244">
        <pitch>
          <step>F</step>
          <octave>2</octave>
        </pitch>
        <duration>1024</duration>
        <voice>4</voice>
        <type>quarter</type>
        <stem default-y="-9.5">up</stem>
        <staff>2</staff>
      </note>
      <note default-x="312">
        <rest/>
        <duration>1024</duration>
        <voice>4</voice>
        <type>quarter</type>
        <staff>2</staff>
      </note>
    </measure>
    <!--=======================================================-->
    <measure number="2" width="295">
      <note default-x="14">
        <pitch>
          <step>F</step>
          <octave>3</octave>
        </pitch>
        <duration>1536</duration>
        <voice>1</voice>
        <type>quarter</type>
        <dot/>
        <stem default-y="-45">down</stem>
        <staff>1</staff>
        <notations>
          <slur number="1" placement="above" type="start"/>
        </notations>
      </note>
      <note default-x="108">
        <pitch>
          <step>E</step>
          <octave>3</octave>
        </pitch>
        <duration>512</duration>
        <voice>1</voice>
        <type>eighth</type>
        <stem default-y="-50.5">down</stem>
        <staff>1</staff>
        <notations>
          <slur number="1" type="stop"/>
        </notations>
      </note>
      <note default-x="152">
        <pitch>
          <step>A</step>
          <octave>3</octave>
        </pitch>
        <duration>1024</duration>
        <voice>1</voice>
        <type>quarter</type>
        <stem default-y="-35">down</stem>
        <staff>1</staff>
      </note>
      <note default-x="223">
        <rest/>
        <duration>1024</duration>
        <voice>1</voice>
        <type>quarter</type>
        <staff>1</staff>
      </note>
      <backup>
        <duration>4096</duration>
      </backup>
      <note default-x="14">
        <pitch>
          <step>F</step>
          <octave>2</octave>
        </pitch>
        <duration>1536</duration>
        <voice>4</voice>
        <type>quarter</type>
        <dot/>
        <stem default-y="-9.5">up</stem>
        <staff>2</staff>
        <notations>
          <slur number="1" placement="below" type="start"/>
        </notations>
      </note>
      <note default-x="108">
        <pitch>
          <step>E</step>
          <octave>2</octave>
        </pitch>
        <duration>512</duration>
        <voice>4</voice>
        <type>eighth</type>
        <stem default-y="-14.5">up</stem>
        <staff>2</staff>
        <notations>
          <slur number="1" type="stop"/>
        </notations>
      </note>
      <note default-x="152">
        <pitch>
          <step>A</step>
          <octave>2</octave>
        </pitch>
        <duration>1024</duration>
        <voice>4</voice>
        <type>quarter</type>
        <stem default-y="0">up</stem>
        <staff>2</staff>
      </note>
      <note default-x="223">
        <rest/>
        <duration>1024</duration>
        <voice>4</voice>
        <type>quarter</type>
        <staff>2</staff>
      </note>
    </measure>
    <!--=======================================================-->
    <measure number="3" width="307">
      <attributes>
        <clef number="1">
          <sign>G</sign>
          <line>2</line>
        </clef>
      </attributes>
      <direction placement="below">
        <direction-type>
          <dynamics default-x="5" default-y="-73">
            <p/>
          </dynamics>
        </direction-type>
        <staff>1</staff>
        <sound dynamics="54"/>
      </direction>
      <note default-x="14">
        <rest/>
        <duration>1024</duration>
        <voice>1</voice>
        <type>quarter</type>
        <staff>1</staff>
      </note>
      <direction placement="above">
        <direction-type>
          <words default-y="40" relative-x="5">W</words>
          <words font-size="8.5">OOD-WIND</words>
        </direction-type>
        <staff>1</staff>
      </direction>
      <direction placement="below">
        <direction-type>
          <wedge default-y="-73" spread="0" type="crescendo"/>
        </direction-type>
        <staff>1</staff>
      </direction>
      <note default-x="83">
        <pitch>
          <step>E</step>
          <octave>4</octave>
        </pitch>
        <duration>1024</duration>
        <voice>1</voice>
        <type>quarter</type>
        <stem default-y="14">up</stem>
        <staff>1</staff>
      </note>
      <note default-x="83">
        <chord/>
        <pitch>
          <step>B</step>
          <alter>-1</alter>
          <octave>4</octave>
        </pitch>
        <duration>1024</duration>
        <voice>1</voice>
        <type>quarter</type>
        <stem>up</stem>
        <staff>1</staff>
      </note>
      <note default-x="96">
        <chord/>
        <pitch>
          <step>C</step>
          <alter>1</alter>
          <octave>5</octave>
        </pitch>
        <duration>1024</duration>
        <voice>1</voice>
        <type>quarter</type>
        <accidental>sharp</accidental>
        <stem>up</stem>
        <staff>1</staff>
      </note>
      <direction>
        <direction-type>
          <wedge spread="15" type="stop"/>
        </direction-type>
        <offset>-106</offset>
        <staff>1</staff>
      </direction>
      <direction placement="below">
        <direction-type>
          <wedge default-y="-72" spread="15" type="diminuendo"/>
        </direction-type>
        <offset>224</offset>
        <staff>1</staff>
      </direction>
      <note default-x="152">
        <pitch>
          <step>F</step>
          <alter>1</alter>
          <octave>4</octave>
        </pitch>
        <duration>1024</duration>
        <voice>1</voice>
        <type>quarter</type>
        <accidental>sharp</accidental>
        <stem default-y="-64">down</stem>
        <staff>1</staff>
      </note>
      <note default-x="152">
        <chord/>
        <pitch>
          <step>A</step>
          <octave>4</octave>
        </pitch>
        <duration>1024</duration>
        <voice>1</voice>
        <type>quarter</type>
        <stem>down</stem>
        <staff>1</staff>
      </note>
      <note default-x="152">
        <chord/>
        <pitch>
          <step>E</step>
          <alter>-1</alter>
          <octave>5</octave>
        </pitch>
        <duration>1024</duration>
        <voice>1</voice>
        <type>quarter</type>
        <accidental>flat</accidental>
        <stem>down</stem>
        <staff>1</staff>
      </note>
      <direction>
        <direction-type>
          <wedge spread="0" type="stop"/>
        </direction-type>
        <offset>106</offset>
        <staff>1</staff>
      </direction>
      <note default-x="221">
        <pitch>
          <step>F</step>
          <alter>1</alter>
          <octave>4</octave>
        </pitch>
        <duration>1024</duration>
        <voice>1</voice>
        <type>quarter</type>
        <stem default-y="19">up</stem>
        <staff>1</staff>
      </note>
      <note default-x="221">
        <chord/>
        <pitch>
          <step>C</step>
          <octave>5</octave>
        </pitch>
        <duration>1024</duration>
        <voice>1</voice>
        <type>quarter</type>
        <accidental>natural</accidental>
        <stem>up</stem>
        <staff>1</staff>
      </note>
      <note default-x="234">
        <chord/>
        <pitch>
          <step>D</step>
          <octave>5</octave>
        </pitch>
        <duration>1024</duration>
        <voice>1</voice>
        <type>quarter</type>
        <stem>up</stem>
        <staff>1</staff>
      </note>
      <backup>
        <duration>4096</duration>
      </backup>
      <note default-x="14">
        <pitch>
          <step>A</step>
          <octave>2</octave>
        </pitch>
        <duration>1024</duration>
        <voice>4</voice>
        <type>quarter</type>
        <stem default-y="-64">down</stem>
        <staff>2</staff>
        <notations>
          <slur number="1" placement="below" type="start"/>
        </notations>
      </note>
      <note default-x="14">
        <chord/>
        <pitch>
          <step>A</step>
          <octave>3</octave>
        </pitch>
        <duration>1024</duration>
        <voice>4</voice>
        <type>quarter</type>
        <stem>down</stem>
        <staff>2</staff>
      </note>
      <note default-x="83">
        <pitch>
          <step>G</step>
          <octave>2</octave>
        </pitch>
        <duration>1024</duration>
        <voice>4</voice>
        <type>quarter</type>
        <stem default-y="24">up</stem>
        <staff>2</staff>
      </note>
      <note default-x="83">
        <chord/>
        <pitch>
          <step>G</step>
          <octave>3</octave>
        </pitch>
        <duration>1024</duration>
        <voice>4</voice>
        <type>quarter</type>
        <stem>up</stem>
        <staff>2</staff>
      </note>
      <note default-x="152">
        <pitch>
          <step>C</step>
          <octave>3</octave>
        </pitch>
        <duration>1024</duration>
        <voice>4</voice>
        <type>quarter</type>
        <stem default-y="-53.5">down</stem>
        <staff>2</staff>
      </note>
      <note default-x="152">
        <chord/>
        <pitch>
          <step>C</step>
          <octave>4</octave>
        </pitch>
        <duration>1024</duration>
        <voice>4</voice>
        <type>quarter</type>
        <stem>down</stem>
        <staff>2</staff>
      </note>
      <note default-x="221">
        <pitch>
          <step>B</step>
          <alter>-1</alter>
          <octave>2</octave>
        </pitch>
        <duration>512</duration>
        <voice>4</voice>
        <type>eighth</type>
        <stem default-y="-65">down</stem>
        <staff>2</staff>
        <beam number="1">begin</beam>
      </note>
      <note default-x="221">
        <chord/>
        <pitch>
          <step>B</step>
          <alter>-1</alter>
          <octave>3</octave>
        </pitch>
        <duration>512</duration>
        <voice>4</voice>
        <type>eighth</type>
        <stem>down</stem>
        <staff>2</staff>
      </note>
      <note default-x="263">
        <pitch>
          <step>A</step>
          <octave>2</octave>
        </pitch>
        <duration>512</duration>
        <voice>4</voice>
        <type>eighth</type>
        <stem default-y="-70">down</stem>
        <staff>2</staff>
        <beam number="1">end</beam>
        <notations>
          <slur number="1" type="stop"/>
        </notations>
      </note>
      <note default-x="263">
        <chord/>
        <pitch>
          <step>A</step>
          <octave>3</octave>
        </pitch>
        <duration>512</duration>
        <voice>4</voice>
        <type>eighth</type>
        <stem>down</stem>
        <staff>2</staff>
      </note>
    </measure>
    <!--=======================================================-->
    <measure number="4" width="265">
      <print new-system="yes">
        <system-layout>
          <system-distance>114</system-distance>
        </system-layout>
      </print>
      <note default-x="78">
        <pitch>
          <step>G</step>
          <octave>4</octave>
        </pitch>
        <duration>1024</duration>
        <voice>1</voice>
        <type>quarter</type>
        <stem default-y="19">up</stem>
        <staff>1</staff>
      </note>
      <note default-x="78">
        <chord/>
        <pitch>
          <step>B</step>
          <alter>-1</alter>
          <octave>4</octave>
        </pitch>
        <duration>1024</duration>
        <voice>1</voice>
        <type>quarter</type>
        <stem>up</stem>
        <staff>1</staff>
      </note>
      <note default-x="78">
        <chord/>
        <pitch>
          <step>D</step>
          <octave>5</octave>
        </pitch>
        <duration>1024</duration>
        <voice>1</voice>
        <type>quarter</type>
        <stem>up</stem>
        <staff>1</staff>
      </note>
      <direction placement="below">
        <direction-type>
          <words default-y="-99" font-style="italic" relative-x="4">dim.</words>
        </direction-type>
        <staff>1</staff>
      </direction>
      <note default-x="130">
        <pitch>
          <step>D</step>
          <octave>5</octave>
        </pitch>
        <duration>2048</duration>
        <voice>1</voice>
        <type>half</type>
        <stem default-y="53.5">up</stem>
        <staff>1</staff>
      </note>
      <note default-x="130">
        <chord/>
        <pitch>
          <step>G</step>
          <octave>5</octave>
        </pitch>
        <duration>2048</duration>
        <voice>1</voice>
        <type>half</type>
        <stem>up</stem>
        <staff>1</staff>
      </note>
      <note default-x="130">
        <chord/>
        <pitch>
          <step>B</step>
          <alter>-1</alter>
          <octave>5</octave>
        </pitch>
        <duration>2048</duration>
        <voice>1</voice>
        <type>half</type>
        <stem>up</stem>
        <staff>1</staff>
      </note>
      <note default-x="130">
        <chord/>
        <pitch>
          <step>D</step>
          <octave>6</octave>
        </pitch>
        <duration>2048</duration>
        <voice>1</voice>
        <type>half</type>
        <stem>up</stem>
        <staff>1</staff>
      </note>
      <note default-x="213">
        <rest>
          <display-step>A</display-step>
          <display-octave>5</display-octave>
        </rest>
        <duration>1024</duration>
        <voice>1</voice>
        <type>quarter</type>
        <staff>1</staff>
      </note>
      <backup>
        <duration>4096</duration>
      </backup>
      <forward>
        <duration>1024</duration>
        <voice>2</voice>
        <staff>1</staff>
      </forward>
      <note default-x="130">
        <pitch>
          <step>B</step>
          <alter>-1</alter>
          <octave>3</octave>
        </pitch>
        <duration>2048</duration>
        <voice>2</voice>
        <type>half</type>
        <stem default-y="-83.5">down</stem>
        <staff>1</staff>
      </note>
      <note default-x="130">
        <chord/>
        <pitch>
          <step>D</step>
          <octave>4</octave>
        </pitch>
        <duration>2048</duration>
        <voice>2</voice>
        <type>half</type>
        <stem>down</stem>
        <staff>1</staff>
      </note>
      <note default-x="130">
        <chord/>
        <pitch>
          <step>G</step>
          <octave>4</octave>
        </pitch>
        <duration>2048</duration>
        <voice>2</voice>
        <type>half</type>
        <stem>down</stem>
        <staff>1</staff>
      </note>
      <note default-x="130">
        <chord/>
        <pitch>
          <step>B</step>
          <alter>-1</alter>
          <octave>4</octave>
        </pitch>
        <duration>2048</duration>
        <voice>2</voice>
        <type>half</type>
        <stem>down</stem>
        <staff>1</staff>
      </note>
      <backup>
        <duration>3072</duration>
      </backup>
      <note default-x="79">
        <pitch>
          <step>G</step>
          <octave>2</octave>
        </pitch>
        <duration>3072</duration>
        <voice>4</voice>
        <type>half</type>
        <dot/>
        <stem default-y="24">up</stem>
        <staff>2</staff>
        <notations>
          <slur number="1" placement="below" type="start"/>
          <slur number="2" placement="above" type="start"/>
        </notations>
      </note>
      <note default-x="79">
        <chord/>
        <pitch>
          <step>G</step>
          <octave>3</octave>
        </pitch>
        <duration>3072</duration>
        <voice>4</voice>
        <type>half</type>
        <dot/>
        <stem>up</stem>
        <staff>2</staff>
      </note>
      <note default-x="213">
        <pitch>
          <step>F</step>
          <octave>2</octave>
        </pitch>
        <duration>1024</duration>
        <voice>4</voice>
        <type>quarter</type>
        <stem default-y="19">up</stem>
        <staff>2</staff>
        <notations>
          <slur number="1" type="stop"/>
          <slur number="2" type="stop"/>
        </notations>
      </note>
      <note default-x="213">
        <chord/>
        <pitch>
          <step>F</step>
          <octave>3</octave>
        </pitch>
        <duration>1024</duration>
        <voice>4</voice>
        <type>quarter</type>
        <stem>up</stem>
        <staff>2</staff>
      </note>
    </measure>
    <!--=======================================================-->
    <measure number="5" width="253">
      <direction placement="below">
        <direction-type>
          <dynamics default-x="-1" default-y="-73">
            <pp/>
          </dynamics>
        </direction-type>
        <staff>1</staff>
        <sound dynamics="40"/>
      </direction>
      <note default-x="17">
        <rest/>
        <duration>1024</duration>
        <voice>1</voice>
        <type>quarter</type>
        <staff>1</staff>
      </note>
      <note default-x="72">
        <pitch>
          <step>B</step>
          <octave>3</octave>
        </pitch>
        <duration>1024</duration>
        <voice>1</voice>
        <type>quarter</type>
        <accidental>natural</accidental>
        <stem default-y="5">up</stem>
        <staff>1</staff>
      </note>
      <note default-x="72">
        <chord/>
        <pitch>
          <step>F</step>
          <octave>4</octave>
        </pitch>
        <duration>1024</duration>
        <voice>1</voice>
        <type>quarter</type>
        <stem>up</stem>
        <staff>1</staff>
      </note>
      <note default-x="85">
        <chord/>
        <pitch>
          <step>G</step>
          <alter>1</alter>
          <octave>4</octave>
        </pitch>
        <duration>1024</duration>
        <voice>1</voice>
        <type>quarter</type>
        <accidental>sharp</accidental>
        <stem>up</stem>
        <staff>1</staff>
      </note>
      <note default-x="127">
        <pitch>
          <step>C</step>
          <alter>1</alter>
          <octave>4</octave>
        </pitch>
        <duration>1024</duration>
        <voice>1</voice>
        <type>quarter</type>
        <accidental>sharp</accidental>
        <stem default-y="15.5">up</stem>
        <staff>1</staff>
      </note>
      <note default-x="127">
        <chord/>
        <pitch>
          <step>E</step>
          <octave>4</octave>
        </pitch>
        <duration>1024</duration>
        <voice>1</voice>
        <type>quarter</type>
        <stem>up</stem>
        <staff>1</staff>
      </note>
      <note default-x="127">
        <chord/>
        <pitch>
          <step>B</step>
          <alter>-1</alter>
          <octave>4</octave>
        </pitch>
        <duration>1024</duration>
        <voice>1</voice>
        <type>quarter</type>
        <stem>up</stem>
        <staff>1</staff>
      </note>
      <note default-x="183">
        <pitch>
          <step>C</step>
          <alter>1</alter>
          <octave>4</octave>
        </pitch>
        <duration>1024</duration>
        <voice>1</voice>
        <type>quarter</type>
        <stem default-y="11">up</stem>
        <staff>1</staff>
      </note>
      <note default-x="183">
        <chord/>
        <pitch>
          <step>G</step>
          <octave>4</octave>
        </pitch>
        <duration>1024</duration>
        <voice>1</voice>
        <type>quarter</type>
        <accidental>natural</accidental>
        <stem>up</stem>
        <staff>1</staff>
      </note>
      <note default-x="196">
        <chord/>
        <pitch>
          <step>A</step>
          <octave>4</octave>
        </pitch>
        <duration>1024</duration>
        <voice>1</voice>
        <type>quarter</type>
        <stem>up</stem>
        <staff>1</staff>
      </note>
      <backup>
        <duration>4096</duration>
      </backup>
      <note default-x="16">
        <pitch>
          <step>E</step>
          <octave>2</octave>
        </pitch>
        <duration>1024</duration>
        <voice>4</voice>
        <type>quarter</type>
        <stem default-y="13.5">up</stem>
        <staff>2</staff>
        <notations>
          <slur number="1" placement="below" type="start"/>
        </notations>
      </note>
      <note default-x="16">
        <chord/>
        <pitch>
          <step>E</step>
          <octave>3</octave>
        </pitch>
        <duration>1024</duration>
        <voice>4</voice>
        <type>quarter</type>
        <stem>up</stem>
        <staff>2</staff>
      </note>
      <note default-x="72">
        <pitch>
          <step>D</step>
          <octave>2</octave>
        </pitch>
        <duration>1024</duration>
        <voice>4</voice>
        <type>quarter</type>
        <stem default-y="15.5">up</stem>
        <staff>2</staff>
      </note>
      <note default-x="72">
        <chord/>
        <pitch>
          <step>D</step>
          <octave>3</octave>
        </pitch>
        <duration>1024</duration>
        <voice>4</voice>
        <type>quarter</type>
        <stem>up</stem>
        <staff>2</staff>
      </note>
      <note default-x="127">
        <pitch>
          <step>G</step>
          <octave>2</octave>
        </pitch>
        <duration>1024</duration>
        <voice>4</voice>
        <type>quarter</type>
        <stem default-y="24">up</stem>
        <staff>2</staff>
      </note>
      <note default-x="127">
        <chord/>
        <pitch>
          <step>G</step>
          <octave>3</octave>
        </pitch>
        <duration>1024</duration>
        <voice>4</voice>
        <type>quarter</type>
        <stem>up</stem>
        <staff>2</staff>
      </note>
      <note default-x="183">
        <pitch>
          <step>F</step>
          <octave>2</octave>
        </pitch>
        <duration>512</duration>
        <voice>4</voice>
        <type>eighth</type>
        <stem default-y="25">up</stem>
        <staff>2</staff>
        <beam number="1">begin</beam>
      </note>
      <note default-x="183">
        <chord/>
        <pitch>
          <step>F</step>
          <octave>3</octave>
        </pitch>
        <duration>512</duration>
        <voice>4</voice>
        <type>eighth</type>
        <stem>up</stem>
        <staff>2</staff>
      </note>
      <note default-x="218">
        <pitch>
          <step>E</step>
          <octave>2</octave>
        </pitch>
        <duration>512</duration>
        <voice>4</voice>
        <type>eighth</type>
        <stem default-y="20">up</stem>
        <staff>2</staff>
        <beam number="1">end</beam>
        <notations>
          <slur number="1" type="stop"/>
        </notations>
      </note>
      <note default-x="218">
        <chord/>
        <pitch>
          <step>E</step>
          <octave>3</octave>
        </pitch>
        <duration>512</duration>
        <voice>4</voice>
        <type>eighth</type>
        <stem>up</stem>
        <staff>2</staff>
      </note>
    </measure>
    <!--=======================================================-->
    <measure number="6" width="219">
      <direction placement="below">
        <direction-type>
          <dynamics default-x="4" default-y="-73">
            <p/>
          </dynamics>
        </direction-type>
        <staff>1</staff>
        <sound dynamics="54"/>
      </direction>
      <direction placement="above">
        <direction-type>
          <words default-y="40">S</words>
          <words font-size="8.5">TRINGS</words>
        </direction-type>
        <staff>1</staff>
      </direction>
      <note default-x="13">
        <pitch>
          <step>F</step>
          <octave>5</octave>
        </pitch>
        <duration>1024</duration>
        <voice>1</voice>
        <type>quarter</type>
        <stem default-y="29">up</stem>
        <staff>1</staff>
        <notations>
          <slur number="1" placement="above" type="start"/>
        </notations>
      </note>
      <direction placement="below">
        <direction-type>
          <words default-y="-73" font-style="italic" relative-x="-19">espress.</words>
        </direction-type>
        <staff>1</staff>
      </direction>
      <note default-x="65">
        <pitch>
          <step>D</step>
          <octave>5</octave>
        </pitch>
        <duration>1024</duration>
        <voice>1</voice>
        <type>quarter</type>
        <stem default-y="19">up</stem>
        <staff>1</staff>
      </note>
      <note default-x="116">
        <pitch>
          <step>B</step>
          <alter>-1</alter>
          <octave>4</octave>
        </pitch>
        <duration>1024</duration>
        <voice>1</voice>
        <type>quarter</type>
        <stem default-y="15.5">up</stem>
        <staff>1</staff>
      </note>
      <note default-x="167">
        <pitch>
          <step>A</step>
          <octave>4</octave>
        </pitch>
        <duration>1024</duration>
        <voice>1</voice>
        <type>quarter</type>
        <stem default-y="11">up</stem>
        <staff>1</staff>
        <notations>
          <slur number="1" type="stop"/>
        </notations>
      </note>
      <backup>
        <duration>4096</duration>
      </backup>
      <note default-x="13">
        <pitch>
          <step>F</step>
          <octave>4</octave>
        </pitch>
        <duration>4096</duration>
        <voice>2</voice>
        <type>whole</type>
        <staff>1</staff>
      </note>
      <backup>
        <duration>4096</duration>
      </backup>
      <note default-x="13">
        <pitch>
          <step>A</step>
          <octave>3</octave>
        </pitch>
        <duration>2048</duration>
        <voice>4</voice>
        <type>half</type>
        <stem default-y="29">up</stem>
        <staff>2</staff>
        <notations>
          <slur number="1" placement="above" type="start"/>
        </notations>
      </note>
      <note default-x="116">
        <pitch>
          <step>B</step>
          <alter>-1</alter>
          <octave>3</octave>
        </pitch>
        <duration>2048</duration>
        <voice>4</voice>
        <type>half</type>
        <stem default-y="33.5">up</stem>
        <staff>2</staff>
        <notations>
          <slur number="1" type="stop"/>
        </notations>
      </note>
      <backup>
        <duration>4096</duration>
      </backup>
      <note default-x="13">
        <pitch>
          <step>D</step>
          <octave>3</octave>
        </pitch>
        <duration>4096</duration>
        <voice>5</voice>
        <type>whole</type>
        <staff>2</staff>
      </note>
    </measure>
    <!--=======================================================-->
    <measure number="7" width="246">
      <note default-x="25">
        <pitch>
          <step>A</step>
          <alter>-1</alter>
          <octave>4</octave>
        </pitch>
        <duration>1536</duration>
        <voice>1</voice>
        <type>quarter</type>
        <dot/>
        <accidental>flat</accidental>
        <stem default-y="11">up</stem>
        <staff>1</staff>
        <notations>
          <slur number="1" placement="above" type="start"/>
        </notations>
      </note>
      <note default-x="100">
        <pitch>
          <step>G</step>
          <octave>4</octave>
        </pitch>
        <duration>512</duration>
        <voice>1</voice>
        <type>eighth</type>
        <stem default-y="5">up</stem>
        <staff>1</staff>
        <notations>
          <slur number="1" type="stop"/>
        </notations>
      </note>
      <note default-x="135">
        <pitch>
          <step>G</step>
          <octave>4</octave>
        </pitch>
        <duration>1536</duration>
        <voice>1</voice>
        <type>quarter</type>
        <dot/>
        <stem default-y="5">up</stem>
        <staff>1</staff>
        <notations>
          <slur number="1" placement="above" type="start"/>
        </notations>
      </note>
      <note default-x="210">
        <pitch>
          <step>F</step>
          <octave>4</octave>
        </pitch>
        <duration>512</duration>
        <voice>1</voice>
        <type>eighth</type>
        <stem default-y="0.5">up</stem>
        <staff>1</staff>
        <notations>
          <slur number="1" type="stop"/>
        </notations>
      </note>
      <backup>
        <duration>4096</duration>
      </backup>
      <note default-x="25">
        <pitch>
          <step>B</step>
          <alter>-1</alter>
          <octave>3</octave>
        </pitch>
        <duration>2048</duration>
        <voice>2</voice>
        <type>half</type>
        <stem default-y="-83.5">down</stem>
        <staff>1</staff>
      </note>
      <note default-x="25">
        <chord/>
        <pitch>
          <step>E</step>
          <octave>4</octave>
        </pitch>
        <duration>2048</duration>
        <voice>2</voice>
        <type>half</type>
        <stem>down</stem>
        <staff>1</staff>
      </note>
      <note default-x="136">
        <pitch>
          <step>A</step>
          <alter>-1</alter>
          <octave>3</octave>
        </pitch>
        <duration>2048</duration>
        <voice>2</voice>
        <type>half</type>
        <accidental>flat</accidental>
        <stem default-y="-89">down</stem>
        <staff>1</staff>
      </note>
      <note default-x="136">
        <chord/>
        <pitch>
          <step>D</step>
          <octave>4</octave>
        </pitch>
        <duration>2048</duration>
        <voice>2</voice>
        <type>half</type>
        <stem>down</stem>
        <staff>1</staff>
      </note>
      <backup>
        <duration>4096</duration>
      </backup>
      <note default-x="25">
        <pitch>
          <step>D</step>
          <alter>-1</alter>
          <octave>2</octave>
        </pitch>
        <duration>2048</duration>
        <voice>4</voice>
        <type>half</type>
        <accidental>flat</accidental>
        <stem default-y="15.5">up</stem>
        <staff>2</staff>
      </note>
      <note default-x="25">
        <chord/>
        <pitch>
          <step>D</step>
          <alter>-1</alter>
          <octave>3</octave>
        </pitch>
        <duration>2048</duration>
        <voice>4</voice>
        <type>half</type>
        <accidental>flat</accidental>
        <stem>up</stem>
        <staff>2</staff>
      </note>
      <note default-x="136">
        <pitch>
          <step>B</step>
          <octave>1</octave>
        </pitch>
        <duration>2048</duration>
        <voice>4</voice>
        <type>half</type>
        <accidental>natural</accidental>
        <stem default-y="5">up</stem>
        <staff>2</staff>
      </note>
      <note default-x="136">
        <chord/>
        <pitch>
          <step>B</step>
          <octave>2</octave>
        </pitch>
        <duration>2048</duration>
        <voice>4</voice>
        <type>half</type>
        <accidental>natural</accidental>
        <stem>up</stem>
        <staff>2</staff>
      </note>
    </measure>
    <!--=======================================================-->
    <measure number="8" width="336">
      <print new-system="yes">
        <system-layout>
          <system-distance>114</system-distance>
        </system-layout>
      </print>
      <note default-x="91">
        <pitch>
          <step>F</step>
          <octave>4</octave>
        </pitch>
        <duration>1024</duration>
        <voice>1</voice>
        <type>quarter</type>
        <stem default-y="0.5">up</stem>
        <staff>1</staff>
        <notations>
          <slur number="1" placement="above" type="start"/>
        </notations>
      </note>
      <note default-x="159">
        <pitch>
          <step>E</step>
          <octave>4</octave>
        </pitch>
        <duration>1024</duration>
        <voice>1</voice>
        <type>quarter</type>
        <stem default-y="-4">up</stem>
        <staff>1</staff>
        <notations>
          <slur number="1" type="stop"/>
        </notations>
      </note>
      <note default-x="224">
        <rest>
          <display-step>A</display-step>
          <display-octave>5</display-octave>
        </rest>
        <duration>2048</duration>
        <voice>1</voice>
        <type>half</type>
        <staff>1</staff>
      </note>
      <backup>
        <duration>4096</duration>
      </backup>
      <note default-x="91">
        <pitch>
          <step>G</step>
          <octave>3</octave>
        </pitch>
        <duration>4096</duration>
        <voice>2</voice>
        <type>whole</type>
        <staff>1</staff>
      </note>
      <note default-x="91">
        <chord/>
        <pitch>
          <step>C</step>
          <alter>1</alter>
          <octave>4</octave>
        </pitch>
        <duration>4096</duration>
        <voice>2</voice>
        <type>whole</type>
        <accidental>sharp</accidental>
        <staff>1</staff>
      </note>
      <backup>
        <duration>4096</duration>
      </backup>
      <note default-x="91">
        <pitch>
          <step>B</step>
          <alter>-1</alter>
          <octave>1</octave>
        </pitch>
        <duration>2048</duration>
        <voice>4</voice>
        <type>half</type>
        <stem default-y="5.5">up</stem>
        <staff>2</staff>
        <notations>
          <slur number="1" placement="below" type="start"/>
          <slur number="2" placement="above" type="start"/>
        </notations>
      </note>
      <note default-x="91">
        <chord/>
        <pitch>
          <step>B</step>
          <alter>-1</alter>
          <octave>2</octave>
        </pitch>
        <duration>2048</duration>
        <voice>4</voice>
        <type>half</type>
        <stem>up</stem>
        <staff>2</staff>
      </note>
      <note default-x="226">
        <pitch>
          <step>A</step>
          <octave>1</octave>
        </pitch>
        <duration>2048</duration>
        <voice>4</voice>
        <type>half</type>
        <stem default-y="0.5">up</stem>
        <staff>2</staff>
        <notations>
          <slur number="1" type="stop"/>
          <slur number="2" type="stop"/>
        </notations>
      </note>
      <note default-x="226">
        <chord/>
        <pitch>
          <step>A</step>
          <octave>2</octave>
        </pitch>
        <duration>2048</duration>
        <voice>4</voice>
        <type>half</type>
        <stem>up</stem>
        <staff>2</staff>
      </note>
    </measure>
    <!--=======================================================-->
    <measure number="9" width="313">
      <note default-x="37">
        <pitch>
          <step>F</step>
          <octave>4</octave>
        </pitch>
        <duration>1024</duration>
        <voice>1</voice>
        <type>quarter</type>
        <stem default-y="0.5">up</stem>
        <staff>1</staff>
        <notations>
          <slur number="1" placement="above" type="start"/>
        </notations>
      </note>
      <note default-x="106">
        <pitch>
          <step>A</step>
          <alter>-1</alter>
          <octave>4</octave>
        </pitch>
        <duration>1024</duration>
        <voice>1</voice>
        <type>quarter</type>
        <accidental>flat</accidental>
        <stem default-y="10">up</stem>
        <staff>1</staff>
      </note>
      <note default-x="175">
        <pitch>
          <step>F</step>
          <octave>4</octave>
        </pitch>
        <duration>1024</duration>
        <voice>1</voice>
        <type>quarter</type>
        <stem default-y="0.5">up</stem>
        <staff>1</staff>
      </note>
      <note default-x="244">
        <pitch>
          <step>B</step>
          <alter>-1</alter>
          <octave>3</octave>
        </pitch>
        <duration>1024</duration>
        <voice>1</voice>
        <type>quarter</type>
        <stem default-y="-4">up</stem>
        <staff>1</staff>
        <notations>
          <slur number="1" type="stop"/>
        </notations>
      </note>
      <note default-x="244">
        <chord/>
        <pitch>
          <step>E</step>
          <octave>4</octave>
        </pitch>
        <duration>1024</duration>
        <voice>1</voice>
        <type>quarter</type>
        <stem>up</stem>
        <staff>1</staff>
      </note>
      <backup>
        <duration>4096</duration>
      </backup>
      <note default-x="37">
        <pitch>
          <step>D</step>
          <alter>-1</alter>
          <octave>4</octave>
        </pitch>
        <duration>4096</duration>
        <voice>2</voice>
        <type>whole</type>
        <accidental>flat</accidental>
        <staff>1</staff>
      </note>
      <backup>
        <duration>4096</duration>
      </backup>
      <note default-x="37">
        <pitch>
          <step>A</step>
          <alter>-1</alter>
          <octave>3</octave>
        </pitch>
        <duration>3072</duration>
        <voice>3</voice>
        <type>half</type>
        <dot/>
        <accidental>flat</accidental>
        <stem default-y="-19.5">up</stem>
        <staff>1</staff>
        <notations>
          <slur number="1" placement="above" type="start"/>
        </notations>
      </note>
      <forward>
        <duration>1024</duration>
        <voice>3</voice>
        <staff>1</staff>
      </forward>
      <backup>
        <duration>4096</duration>
      </backup>
      <note default-x="37">
        <pitch>
          <step>A</step>
          <alter>-1</alter>
          <octave>1</octave>
        </pitch>
        <duration>3072</duration>
        <voice>4</voice>
        <type>half</type>
        <dot/>
        <accidental>flat</accidental>
        <stem default-y="0.5">up</stem>
        <staff>2</staff>
        <notations>
          <slur number="2" placement="below" type="start"/>
          <slur number="3" placement="above" type="start"/>
        </notations>
      </note>
      <note default-x="37">
        <chord/>
        <pitch>
          <step>A</step>
          <alter>-1</alter>
          <octave>2</octave>
        </pitch>
        <duration>3072</duration>
        <voice>4</voice>
        <type>half</type>
        <dot/>
        <accidental>flat</accidental>
        <stem>up</stem>
        <staff>2</staff>
      </note>
      <note default-x="244">
        <pitch>
          <step>G</step>
          <octave>1</octave>
        </pitch>
        <duration>1024</duration>
        <voice>4</voice>
        <type>quarter</type>
        <stem default-y="-4">up</stem>
        <staff>2</staff>
        <notations>
          <slur number="2" type="stop"/>
          <slur number="3" type="stop"/>
        </notations>
      </note>
      <note default-x="244">
        <chord/>
        <pitch>
          <step>G</step>
          <octave>2</octave>
        </pitch>
        <duration>1024</duration>
        <voice>4</voice>
        <type>quarter</type>
        <stem>up</stem>
        <staff>2</staff>
      </note>
    </measure>
    <!--=======================================================-->
    <measure number="10" width="334">
      <note default-x="49">
        <pitch>
          <step>E</step>
          <alter>-1</alter>
          <octave>4</octave>
        </pitch>
        <duration>1024</duration>
        <voice>1</voice>
        <type>quarter</type>
        <accidental>flat</accidental>
        <stem default-y="-4">up</stem>
        <staff>1</staff>
        <notations>
          <slur number="2" placement="above" type="start"/>
        </notations>
      </note>
      <note default-x="120">
        <pitch>
          <step>G</step>
          <alter>-1</alter>
          <octave>4</octave>
        </pitch>
        <duration>1024</duration>
        <voice>1</voice>
        <type>quarter</type>
        <accidental>flat</accidental>
        <stem default-y="5.5">up</stem>
        <staff>1</staff>
      </note>
      <note default-x="191">
        <pitch>
          <step>E</step>
          <alter>-1</alter>
          <octave>4</octave>
        </pitch>
        <duration>1024</duration>
        <voice>1</voice>
        <type>quarter</type>
        <stem default-y="-4">up</stem>
        <staff>1</staff>
      </note>
      <note default-x="262">
        <pitch>
          <step>D</step>
          <octave>4</octave>
        </pitch>
        <duration>1024</duration>
        <voice>1</voice>
        <type>quarter</type>
        <stem default-y="-10">up</stem>
        <staff>1</staff>
        <notations>
          <slur number="2" type="stop"/>
        </notations>
      </note>
      <backup>
        <duration>4096</duration>
      </backup>
      <note default-x="49">
        <pitch>
          <step>C</step>
          <alter>-1</alter>
          <octave>4</octave>
        </pitch>
        <duration>4096</duration>
        <voice>2</voice>
        <type>whole</type>
        <accidental>flat</accidental>
        <staff>1</staff>
      </note>
      <backup>
        <duration>4096</duration>
      </backup>
      <note default-x="49">
        <pitch>
          <step>G</step>
          <alter>-1</alter>
          <octave>3</octave>
        </pitch>
        <duration>3072</duration>
        <voice>3</voice>
        <type>half</type>
        <dot/>
        <accidental>flat</accidental>
        <stem default-y="-19.5">up</stem>
        <staff>1</staff>
        <notations>
          <slur number="1" type="stop"/>
          <slur number="1" placement="above" type="start"/>
        </notations>
      </note>
      <note default-x="262">
        <pitch>
          <step>A</step>
          <alter>-1</alter>
          <octave>3</octave>
        </pitch>
        <duration>1024</duration>
        <voice>3</voice>
        <type>quarter</type>
        <accidental>flat</accidental>
        <stem default-y="-19.5">up</stem>
        <staff>1</staff>
        <notations>
          <slur number="1" type="stop"/>
        </notations>
      </note>
      <backup>
        <duration>4096</duration>
      </backup>
      <note default-x="49">
        <pitch>
          <step>G</step>
          <alter>-1</alter>
          <octave>1</octave>
        </pitch>
        <duration>3072</duration>
        <voice>4</voice>
        <type>half</type>
        <dot/>
        <accidental>flat</accidental>
        <stem default-y="-4">up</stem>
        <staff>2</staff>
        <notations>
          <slur number="1" placement="below" type="start"/>
          <slur number="2" placement="above" type="start"/>
        </notations>
      </note>
      <note default-x="49">
        <chord/>
        <pitch>
          <step>G</step>
          <alter>-1</alter>
          <octave>2</octave>
        </pitch>
        <duration>3072</duration>
        <voice>4</voice>
        <type>half</type>
        <dot/>
        <accidental>flat</accidental>
        <stem>up</stem>
        <staff>2</staff>
      </note>
      <note default-x="262">
        <pitch>
          <step>F</step>
          <octave>1</octave>
        </pitch>
        <duration>1024</duration>
        <voice>4</voice>
        <type>quarter</type>
        <stem default-y="-10">up</stem>
        <staff>2</staff>
        <notations>
          <slur number="1" type="stop"/>
          <slur number="2" type="stop"/>
        </notations>
      </note>
      <note default-x="262">
        <chord/>
        <pitch>
          <step>F</step>
          <octave>2</octave>
        </pitch>
        <duration>1024</duration>
        <voice>4</voice>
        <type>quarter</type>
        <stem>up</stem>
        <staff>2</staff>
      </note>
    </measure>
    <!--=======================================================-->
    <measure number="11" width="554">
      <print new-system="yes">
        <system-layout>
          <system-distance>114</system-distance>
        </system-layout>
      </print>
      <direction placement="below">
        <direction-type>
          <words default-y="-109" font-style="italic" relative-x="3">molto cresc.</words>
        </direction-type>
        <staff>1</staff>
      </direction>
      <note default-x="102">
        <pitch>
          <step>D</step>
          <octave>4</octave>
        </pitch>
        <duration>1536</duration>
        <voice>1</voice>
        <type>quarter</type>
        <dot/>
        <stem default-y="-10">up</stem>
        <staff>1</staff>
        <notations>
          <slur number="1" placement="above" type="start"/>
        </notations>
      </note>
      <note default-x="261">
        <pitch>
          <step>F</step>
          <octave>4</octave>
        </pitch>
        <duration>512</duration>
        <voice>1</voice>
        <type>eighth</type>
        <stem default-y="0.5">up</stem>
        <staff>1</staff>
        <notations>
          <slur number="1" type="stop"/>
        </notations>
      </note>
      <note default-x="327">
        <pitch>
          <step>F</step>
          <octave>4</octave>
        </pitch>
        <duration>1536</duration>
        <voice>1</voice>
        <type>quarter</type>
        <dot/>
        <stem default-y="0.5">up</stem>
        <staff>1</staff>
        <notations>
          <slur number="1" placement="above" type="start"/>
        </notations>
      </note>
      <note default-x="487">
        <pitch>
          <step>G</step>
          <alter>1</alter>
          <octave>4</octave>
        </pitch>
        <duration>512</duration>
        <voice>1</voice>
        <type>eighth</type>
        <accidental>sharp</accidental>
        <stem default-y="5.5">up</stem>
        <staff>1</staff>
        <notations>
          <slur number="1" type="stop"/>
        </notations>
      </note>
      <backup>
        <duration>4096</duration>
      </backup>
      <note default-x="102">
        <pitch>
          <step>G</step>
          <alter>1</alter>
          <octave>3</octave>
        </pitch>
        <duration>2048</duration>
        <voice>2</voice>
        <type>half</type>
        <accidental>sharp</accidental>
        <stem default-y="-93.5">down</stem>
        <staff>1</staff>
      </note>
      <note default-x="102">
        <chord/>
        <pitch>
          <step>B</step>
          <octave>3</octave>
        </pitch>
        <duration>2048</duration>
        <voice>2</voice>
        <type>half</type>
        <accidental>natural</accidental>
        <stem>down</stem>
        <staff>1</staff>
      </note>
      <note default-x="315">
        <pitch>
          <step>A</step>
          <alter>-1</alter>
          <octave>3</octave>
        </pitch>
        <duration>2048</duration>
        <voice>2</voice>
        <type>half</type>
        <accidental>flat</accidental>
        <stem default-y="-89">down</stem>
        <staff>1</staff>
      </note>
      <note default-x="327">
        <chord/>
        <pitch>
          <step>B</step>
          <alter>-1</alter>
          <octave>3</octave>
        </pitch>
        <duration>2048</duration>
        <voice>2</voice>
        <type>half</type>
        <accidental>flat</accidental>
        <stem>down</stem>
        <staff>1</staff>
      </note>
      <backup>
        <duration>4096</duration>
      </backup>
      <note default-x="102">
        <cue/>
        <pitch>
          <step>E</step>
          <octave>1</octave>
        </pitch>
        <duration>1024</duration>
        <voice>4</voice>
        <type size="full">32nd</type>
        <time-modification>
          <actual-notes>1</actual-notes>
          <normal-notes>8</normal-notes>
          <normal-type>16th</normal-type>
        </time-modification>
        <stem default-y="-20">up</stem>
        <notehead filled="no">normal</notehead>
        <staff>2</staff>
        <beam number="1">begin</beam>
        <beam number="2">begin</beam>
        <beam number="3">begin</beam>
        <notations>
          <tuplet bracket="no" number="1" show-number="none" type="start">
            <tuplet-actual>
              <tuplet-number>1</tuplet-number>
              <tuplet-type>16th</tuplet-type>
            </tuplet-actual>
            <tuplet-normal>
              <tuplet-number>1</tuplet-number>
              <tuplet-type>half</tuplet-type>
            </tuplet-normal>
          </tuplet>
        </notations>
      </note>
      <note default-x="208">
        <cue/>
        <pitch>
          <step>E</step>
          <octave>2</octave>
        </pitch>
        <duration>1024</duration>
        <voice>4</voice>
        <type size="full">32nd</type>
        <time-modification>
          <actual-notes>1</actual-notes>
          <normal-notes>8</normal-notes>
          <normal-type>16th</normal-type>
        </time-modification>
        <stem default-y="-17.5">up</stem>
        <notehead filled="no">normal</notehead>
        <staff>2</staff>
        <beam number="1">end</beam>
        <beam number="2">end</beam>
        <beam number="3">end</beam>
        <notations>
          <tuplet number="1" type="stop"/>
        </notations>
      </note>
      <note default-x="327">
        <cue/>
        <pitch>
          <step>D</step>
          <octave>1</octave>
        </pitch>
        <duration>1024</duration>
        <voice>4</voice>
        <type size="full">32nd</type>
        <time-modification>
          <actual-notes>1</actual-notes>
          <normal-notes>8</normal-notes>
          <normal-type>16th</normal-type>
        </time-modification>
        <stem default-y="-17.5">up</stem>
        <notehead filled="no">normal</notehead>
        <staff>2</staff>
        <beam number="1">begin</beam>
        <beam number="2">begin</beam>
        <beam number="3">begin</beam>
        <notations>
          <tuplet bracket="no" number="1" show-number="none" type="start">
            <tuplet-actual>
              <tuplet-number>1</tuplet-number>
              <tuplet-type>16th</tuplet-type>
            </tuplet-actual>
            <tuplet-normal>
              <tuplet-number>1</tuplet-number>
              <tuplet-type>half</tuplet-type>
            </tuplet-normal>
          </tuplet>
        </notations>
      </note>
      <note default-x="434">
        <cue/>
        <pitch>
          <step>D</step>
          <octave>2</octave>
        </pitch>
        <duration>1024</duration>
        <voice>4</voice>
        <type size="full">32nd</type>
        <time-modification>
          <actual-notes>1</actual-notes>
          <normal-notes>8</normal-notes>
          <normal-type>16th</normal-type>
        </time-modification>
        <stem default-y="-15">up</stem>
        <notehead filled="no">normal</notehead>
        <staff>2</staff>
        <beam number="1">end</beam>
        <beam number="2">end</beam>
        <beam number="3">end</beam>
        <notations>
          <tuplet number="1" type="stop"/>
        </notations>
      </note>
      <backup>
        <duration>4096</duration>
      </backup>
      <note print-object="no" print-spacing="no">
        <pitch>
          <step>E</step>
          <octave>1</octave>
        </pitch>
        <duration>85</duration>
        <voice>6</voice>
        <stem>up</stem>
        <staff>2</staff>
      </note>
      <note print-object="no" print-spacing="no">
        <pitch>
          <step>E</step>
          <octave>2</octave>
        </pitch>
        <duration>85</duration>
        <voice>6</voice>
        <stem>up</stem>
        <staff>2</staff>
      </note>
      <note print-object="no" print-spacing="no">
        <pitch>
          <step>E</step>
          <octave>1</octave>
        </pitch>
        <duration>85</duration>
        <voice>6</voice>
        <stem>up</stem>
        <staff>2</staff>
      </note>
      <note print-object="no" print-spacing="no">
        <pitch>
          <step>E</step>
          <octave>2</octave>
        </pitch>
        <duration>85</duration>
        <voice>6</voice>
        <stem>up</stem>
        <staff>2</staff>
      </note>
      <note print-object="no" print-spacing="no">
        <pitch>
          <step>E</step>
          <octave>1</octave>
        </pitch>
        <duration>85</duration>
        <voice>6</voice>
        <stem>up</stem>
        <staff>2</staff>
      </note>
      <note print-object="no" print-spacing="no">
        <pitch>
          <step>E</step>
          <octave>2</octave>
        </pitch>
        <duration>85</duration>
        <voice>6</voice>
        <stem>up</stem>
        <staff>2</staff>
      </note>
      <note print-object="no" print-spacing="no">
        <pitch>
          <step>E</step>
          <octave>1</octave>
        </pitch>
        <duration>85</duration>
        <voice>6</voice>
        <stem>up</stem>
        <staff>2</staff>
      </note>
      <note print-object="no" print-spacing="no">
        <pitch>
          <step>E</step>
          <octave>2</octave>
        </pitch>
        <duration>85</duration>
        <voice>6</voice>
        <stem>up</stem>
        <staff>2</staff>
      </note>
      <note print-object="no" print-spacing="no">
        <pitch>
          <step>E</step>
          <octave>1</octave>
        </pitch>
        <duration>85</duration>
        <voice>6</voice>
        <stem>up</stem>
        <staff>2</staff>
      </note>
      <note print-object="no" print-spacing="no">
        <pitch>
          <step>E</step>
          <octave>2</octave>
        </pitch>
        <duration>85</duration>
        <voice>6</voice>
        <stem>up</stem>
        <staff>2</staff>
      </note>
      <note print-object="no" print-spacing="no">
        <pitch>
          <step>E</step>
          <octave>1</octave>
        </pitch>
        <duration>85</duration>
        <voice>6</voice>
        <stem>up</stem>
        <staff>2</staff>
      </note>
      <note print-object="no" print-spacing="no">
        <pitch>
          <step>E</step>
          <octave>2</octave>
        </pitch>
        <duration>85</duration>
        <voice>6</voice>
        <stem>up</stem>
        <staff>2</staff>
      </note>
      <note print-object="no" print-spacing="no">
        <pitch>
          <step>E</step>
          <octave>1</octave>
        </pitch>
        <duration>85</duration>
        <voice>6</voice>
        <stem>up</stem>
        <staff>2</staff>
      </note>
      <note print-object="no" print-spacing="no">
        <pitch>
          <step>E</step>
          <octave>2</octave>
        </pitch>
        <duration>85</duration>
        <voice>6</voice>
        <stem>up</stem>
        <staff>2</staff>
      </note>
      <note print-object="no" print-spacing="no">
        <pitch>
          <step>E</step>
          <octave>1</octave>
        </pitch>
        <duration>85</duration>
        <voice>6</voice>
        <stem>up</stem>
        <staff>2</staff>
      </note>
      <note print-object="no" print-spacing="no">
        <pitch>
          <step>E</step>
          <octave>2</octave>
        </pitch>
        <duration>85</duration>
        <voice>6</voice>
        <stem>up</stem>
        <staff>2</staff>
      </note>
      <note print-object="no" print-spacing="no">
        <pitch>
          <step>E</step>
          <octave>1</octave>
        </pitch>
        <duration>85</duration>
        <voice>6</voice>
        <stem>up</stem>
        <staff>2</staff>
      </note>
      <note print-object="no" print-spacing="no">
        <pitch>
          <step>E</step>
          <octave>2</octave>
        </pitch>
        <duration>85</duration>
        <voice>6</voice>
        <stem>up</stem>
        <staff>2</staff>
      </note>
      <note print-object="no" print-spacing="no">
        <pitch>
          <step>E</step>
          <octave>1</octave>
        </pitch>
        <duration>85</duration>
        <voice>6</voice>
        <stem>up</stem>
        <staff>2</staff>
      </note>
      <note print-object="no" print-spacing="no">
        <pitch>
          <step>E</step>
          <octave>2</octave>
        </pitch>
        <duration>85</duration>
        <voice>6</voice>
        <stem>up</stem>
        <staff>2</staff>
      </note>
      <note print-object="no" print-spacing="no">
        <pitch>
          <step>E</step>
          <octave>1</octave>
        </pitch>
        <duration>85</duration>
        <voice>6</voice>
        <stem>up</stem>
        <staff>2</staff>
      </note>
      <note print-object="no" print-spacing="no">
        <pitch>
          <step>E</step>
          <octave>2</octave>
        </pitch>
        <duration>85</duration>
        <voice>6</voice>
        <stem>up</stem>
        <staff>2</staff>
      </note>
      <note print-object="no" print-spacing="no">
        <pitch>
          <step>E</step>
          <octave>1</octave>
        </pitch>
        <duration>85</duration>
        <voice>6</voice>
        <stem>up</stem>
        <staff>2</staff>
      </note>
      <note print-object="no" print-spacing="no">
        <pitch>
          <step>E</step>
          <octave>2</octave>
        </pitch>
        <duration>85</duration>
        <voice>6</voice>
        <stem>up</stem>
        <staff>2</staff>
      </note>
      <forward>
        <duration>8</duration>
        <voice>6</voice>
        <staff>2</staff>
      </forward>
      <note print-object="no" print-spacing="no">
        <pitch>
          <step>D</step>
          <octave>1</octave>
        </pitch>
        <duration>85</duration>
        <voice>6</voice>
        <stem>up</stem>
        <staff>2</staff>
      </note>
      <note print-object="no" print-spacing="no">
        <pitch>
          <step>D</step>
          <octave>2</octave>
        </pitch>
        <duration>85</duration>
        <voice>6</voice>
        <stem>up</stem>
        <staff>2</staff>
      </note>
      <note print-object="no" print-spacing="no">
        <pitch>
          <step>D</step>
          <octave>1</octave>
        </pitch>
        <duration>85</duration>
        <voice>6</voice>
        <stem>up</stem>
        <staff>2</staff>
      </note>
      <note print-object="no" print-spacing="no">
        <pitch>
          <step>D</step>
          <octave>2</octave>
        </pitch>
        <duration>85</duration>
        <voice>6</voice>
        <stem>up</stem>
        <staff>2</staff>
      </note>
      <note print-object="no" print-spacing="no">
        <pitch>
          <step>D</step>
          <octave>1</octave>
        </pitch>
        <duration>85</duration>
        <voice>6</voice>
        <stem>up</stem>
        <staff>2</staff>
      </note>
      <note print-object="no" print-spacing="no">
        <pitch>
          <step>D</step>
          <octave>2</octave>
        </pitch>
        <duration>85</duration>
        <voice>6</voice>
        <stem>up</stem>
        <staff>2</staff>
      </note>
      <note print-object="no" print-spacing="no">
        <pitch>
          <step>D</step>
          <octave>1</octave>
        </pitch>
        <duration>85</duration>
        <voice>6</voice>
        <stem>up</stem>
        <staff>2</staff>
      </note>
      <note print-object="no" print-spacing="no">
        <pitch>
          <step>D</step>
          <octave>2</octave>
        </pitch>
        <duration>85</duration>
        <voice>6</voice>
        <stem>up</stem>
        <staff>2</staff>
      </note>
      <note print-object="no" print-spacing="no">
        <pitch>
          <step>D</step>
          <octave>1</octave>
        </pitch>
        <duration>85</duration>
        <voice>6</voice>
        <stem>up</stem>
        <staff>2</staff>
      </note>
      <note print-object="no" print-spacing="no">
        <pitch>
          <step>D</step>
          <octave>2</octave>
        </pitch>
        <duration>85</duration>
        <voice>6</voice>
        <stem>up</stem>
        <staff>2</staff>
      </note>
      <note print-object="no" print-spacing="no">
        <pitch>
          <step>D</step>
          <octave>1</octave>
        </pitch>
        <duration>85</duration>
        <voice>6</voice>
        <stem>up</stem>
        <staff>2</staff>
      </note>
      <note print-object="no" print-spacing="no">
        <pitch>
          <step>D</step>
          <octave>2</octave>
        </pitch>
        <duration>85</duration>
        <voice>6</voice>
        <stem>up</stem>
        <staff>2</staff>
      </note>
      <note print-object="no" print-spacing="no">
        <pitch>
          <step>D</step>
          <octave>1</octave>
        </pitch>
        <duration>85</duration>
        <voice>6</voice>
        <stem>up</stem>
        <staff>2</staff>
      </note>
      <note print-object="no" print-spacing="no">
        <pitch>
          <step>D</step>
          <octave>2</octave>
        </pitch>
        <duration>85</duration>
        <voice>6</voice>
        <stem>up</stem>
        <staff>2</staff>
      </note>
      <note print-object="no" print-spacing="no">
        <pitch>
          <step>D</step>
          <octave>1</octave>
        </pitch>
        <duration>85</duration>
        <voice>6</voice>
        <stem>up</stem>
        <staff>2</staff>
      </note>
      <note print-object="no" print-spacing="no">
        <pitch>
          <step>D</step>
          <octave>2</octave>
        </pitch>
        <duration>85</duration>
        <voice>6</voice>
        <stem>up</stem>
        <staff>2</staff>
      </note>
      <note print-object="no" print-spacing="no">
        <pitch>
          <step>D</step>
          <octave>1</octave>
        </pitch>
        <duration>85</duration>
        <voice>6</voice>
        <stem>up</stem>
        <staff>2</staff>
      </note>
      <note print-object="no" print-spacing="no">
        <pitch>
          <step>D</step>
          <octave>2</octave>
        </pitch>
        <duration>85</duration>
        <voice>6</voice>
        <stem>up</stem>
        <staff>2</staff>
      </note>
      <note print-object="no" print-spacing="no">
        <pitch>
          <step>D</step>
          <octave>1</octave>
        </pitch>
        <duration>85</duration>
        <voice>6</voice>
        <stem>up</stem>
        <staff>2</staff>
      </note>
      <note print-object="no" print-spacing="no">
        <pitch>
          <step>D</step>
          <octave>2</octave>
        </pitch>
        <duration>85</duration>
        <voice>6</voice>
        <stem>up</stem>
        <staff>2</staff>
      </note>
      <note print-object="no" print-spacing="no">
        <pitch>
          <step>D</step>
          <octave>1</octave>
        </pitch>
        <duration>85</duration>
        <voice>6</voice>
        <stem>up</stem>
        <staff>2</staff>
      </note>
      <note print-object="no" print-spacing="no">
        <pitch>
          <step>D</step>
          <octave>2</octave>
        </pitch>
        <duration>85</duration>
        <voice>6</voice>
        <stem>up</stem>
        <staff>2</staff>
      </note>
      <note print-object="no" print-spacing="no">
        <pitch>
          <step>D</step>
          <octave>1</octave>
        </pitch>
        <duration>85</duration>
        <voice>6</voice>
        <stem>up</stem>
        <staff>2</staff>
      </note>
      <note print-object="no" print-spacing="no">
        <pitch>
          <step>D</step>
          <octave>2</octave>
        </pitch>
        <duration>85</duration>
        <voice>6</voice>
        <stem>up</stem>
        <staff>2</staff>
      </note>
      <forward>
        <duration>8</duration>
        <voice>6</voice>
        <staff>2</staff>
      </forward>
    </measure>
    <!--=======================================================-->
    <measure number="12" width="430">
      <note default-x="26">
        <pitch>
          <step>G</step>
          <alter>1</alter>
          <octave>4</octave>
        </pitch>
        <duration>1024</duration>
        <voice>1</voice>
        <type>quarter</type>
        <accidental>sharp</accidental>
        <stem default-y="5.5">up</stem>
        <staff>1</staff>
        <notations>
          <slur number="1" placement="above" type="start"/>
        </notations>
      </note>
      <direction placement="below">
        <direction-type>
          <wedge default-y="-72" spread="15" type="diminuendo"/>
        </direction-type>
        <offset>253</offset>
        <staff>1</staff>
      </direction>
      <note default-x="152">
        <pitch>
          <step>A</step>
          <octave>4</octave>
        </pitch>
        <duration>3072</duration>
        <voice>1</voice>
        <type>half</type>
        <dot/>
        <stem default-y="10">up</stem>
        <staff>1</staff>
        <notations>
          <slur number="1" type="stop"/>
        </notations>
      </note>
      <backup>
        <duration>4096</duration>
      </backup>
      <note default-x="39">
        <pitch>
          <step>G</step>
          <alter>1</alter>
          <octave>3</octave>
        </pitch>
        <duration>1024</duration>
        <voice>2</voice>
        <type>quarter</type>
        <accidental>sharp</accidental>
        <stem default-y="-93.5">down</stem>
        <staff>1</staff>
      </note>
      <note default-x="39">
        <chord/>
        <pitch>
          <step>D</step>
          <octave>4</octave>
        </pitch>
        <duration>1024</duration>
        <voice>2</voice>
        <type>quarter</type>
        <stem>down</stem>
        <staff>1</staff>
      </note>
      <note default-x="39">
        <chord/>
        <pitch>
          <step>F</step>
          <octave>4</octave>
        </pitch>
        <duration>1024</duration>
        <voice>2</voice>
        <type>quarter</type>
        <stem>down</stem>
        <staff>1</staff>
      </note>
      <note default-x="152">
        <pitch>
          <step>G</step>
          <octave>3</octave>
        </pitch>
        <duration>3072</duration>
        <voice>2</voice>
        <type>half</type>
        <dot/>
        <accidental>natural</accidental>
        <stem default-y="-93.5">down</stem>
        <staff>1</staff>
      </note>
      <note default-x="152">
        <chord/>
        <pitch>
          <step>C</step>
          <alter>1</alter>
          <octave>4</octave>
        </pitch>
        <duration>3072</duration>
        <voice>2</voice>
        <type>half</type>
        <dot/>
        <accidental>sharp</accidental>
        <stem>down</stem>
        <staff>1</staff>
      </note>
      <note default-x="152">
        <chord/>
        <pitch>
          <step>E</step>
          <octave>4</octave>
        </pitch>
        <duration>3072</duration>
        <voice>2</voice>
        <type>half</type>
        <dot/>
        <stem>down</stem>
        <staff>1</staff>
      </note>
      <direction>
        <direction-type>
          <wedge spread="0" type="stop"/>
        </direction-type>
        <offset>-72</offset>
        <staff>1</staff>
      </direction>
      <backup>
        <duration>4096</duration>
      </backup>
      <direction placement="above">
        <direction-type>
          <dynamics default-x="134" default-y="47">
            <f/>
          </dynamics>
        </direction-type>
        <offset sound="yes">1024</offset>
        <staff>2</staff>
        <sound dynamics="98"/>
      </direction>
      <note default-x="26">
        <cue/>
        <pitch>
          <step>B</step>
          <alter>-1</alter>
          <octave>1</octave>
        </pitch>
        <duration>512</duration>
        <voice>4</voice>
        <type size="full">quarter</type>
        <time-modification>
          <actual-notes>2</actual-notes>
          <normal-notes>1</normal-notes>
        </time-modification>
        <stem default-y="7.5">up</stem>
        <staff>2</staff>
        <notations>
          <ornaments>
            <tremolo type="start">3</tremolo>
          </ornaments>
        </notations>
      </note>
      <note default-x="89">
        <cue/>
        <pitch>
          <step>B</step>
          <alter>-1</alter>
          <octave>2</octave>
        </pitch>
        <duration>512</duration>
        <voice>4</voice>
        <type size="full">quarter</type>
        <time-modification>
          <actual-notes>2</actual-notes>
          <normal-notes>1</normal-notes>
        </time-modification>
        <stem default-y="13">up</stem>
        <staff>2</staff>
        <notations>
          <ornaments>
            <tremolo type="stop">3</tremolo>
          </ornaments>
        </notations>
      </note>
      <note default-x="152">
        <cue/>
        <pitch>
          <step>A</step>
          <octave>1</octave>
        </pitch>
        <duration>1536</duration>
        <voice>4</voice>
        <type size="full">32nd</type>
        <dot/>
        <time-modification>
          <actual-notes>3</actual-notes>
          <normal-notes>24</normal-notes>
          <normal-type>32nd</normal-type>
        </time-modification>
        <stem default-y="2.5">up</stem>
        <notehead filled="no">normal</notehead>
        <staff>2</staff>
        <beam number="1">begin</beam>
        <beam number="2">begin</beam>
        <beam number="3">begin</beam>
        <notations>
          <tuplet bracket="no" number="1" show-number="none" type="start">
            <tuplet-actual>
              <tuplet-number>3</tuplet-number>
              <tuplet-type>32nd</tuplet-type>
            </tuplet-actual>
            <tuplet-normal>
              <tuplet-number>3</tuplet-number>
              <tuplet-type>quarter</tuplet-type>
            </tuplet-normal>
          </tuplet>
        </notations>
      </note>
      <note default-x="286">
        <cue/>
        <pitch>
          <step>A</step>
          <octave>2</octave>
        </pitch>
        <duration>1536</duration>
        <voice>4</voice>
        <type size="full">32nd</type>
        <dot/>
        <time-modification>
          <actual-notes>3</actual-notes>
          <normal-notes>24</normal-notes>
          <normal-type>32nd</normal-type>
        </time-modification>
        <stem default-y="7.5">up</stem>
        <notehead filled="no">normal</notehead>
        <staff>2</staff>
        <beam number="1">end</beam>
        <beam number="2">end</beam>
        <beam number="3">end</beam>
        <notations>
          <tuplet number="1" type="stop"/>
        </notations>
      </note>
      <backup>
        <duration>4096</duration>
      </backup>
      <note print-object="no" print-spacing="no">
        <pitch>
          <step>B</step>
          <alter>-1</alter>
          <octave>1</octave>
        </pitch>
        <duration>85</duration>
        <voice>6</voice>
        <stem>up</stem>
        <staff>2</staff>
      </note>
      <note print-object="no" print-spacing="no">
        <pitch>
          <step>B</step>
          <alter>-1</alter>
          <octave>2</octave>
        </pitch>
        <duration>85</duration>
        <voice>6</voice>
        <stem>up</stem>
        <staff>2</staff>
      </note>
      <note print-object="no" print-spacing="no">
        <pitch>
          <step>B</step>
          <alter>-1</alter>
          <octave>1</octave>
        </pitch>
        <duration>85</duration>
        <voice>6</voice>
        <stem>up</stem>
        <staff>2</staff>
      </note>
      <note print-object="no" print-spacing="no">
        <pitch>
          <step>B</step>
          <alter>-1</alter>
          <octave>2</octave>
        </pitch>
        <duration>85</duration>
        <voice>6</voice>
        <stem>up</stem>
        <staff>2</staff>
      </note>
      <note print-object="no" print-spacing="no">
        <pitch>
          <step>B</step>
          <alter>-1</alter>
          <octave>1</octave>
        </pitch>
        <duration>85</duration>
        <voice>6</voice>
        <stem>up</stem>
        <staff>2</staff>
      </note>
      <note print-object="no" print-spacing="no">
        <pitch>
          <step>B</step>
          <alter>-1</alter>
          <octave>2</octave>
        </pitch>
        <duration>85</duration>
        <voice>6</voice>
        <stem>up</stem>
        <staff>2</staff>
      </note>
      <note print-object="no" print-spacing="no">
        <pitch>
          <step>B</step>
          <alter>-1</alter>
          <octave>1</octave>
        </pitch>
        <duration>85</duration>
        <voice>6</voice>
        <stem>up</stem>
        <staff>2</staff>
      </note>
      <note print-object="no" print-spacing="no">
        <pitch>
          <step>B</step>
          <alter>-1</alter>
          <octave>2</octave>
        </pitch>
        <duration>85</duration>
        <voice>6</voice>
        <stem>up</stem>
        <staff>2</staff>
      </note>
      <note print-object="no" print-spacing="no">
        <pitch>
          <step>B</step>
          <alter>-1</alter>
          <octave>1</octave>
        </pitch>
        <duration>85</duration>
        <voice>6</voice>
        <stem>up</stem>
        <staff>2</staff>
      </note>
      <note print-object="no" print-spacing="no">
        <pitch>
          <step>B</step>
          <alter>-1</alter>
          <octave>2</octave>
        </pitch>
        <duration>85</duration>
        <voice>6</voice>
        <stem>up</stem>
        <staff>2</staff>
      </note>
      <note print-object="no" print-spacing="no">
        <pitch>
          <step>B</step>
          <alter>-1</alter>
          <octave>1</octave>
        </pitch>
        <duration>85</duration>
        <voice>6</voice>
        <stem>up</stem>
        <staff>2</staff>
      </note>
      <note print-object="no" print-spacing="no">
        <pitch>
          <step>B</step>
          <alter>-1</alter>
          <octave>2</octave>
        </pitch>
        <duration>85</duration>
        <voice>6</voice>
        <stem>up</stem>
        <staff>2</staff>
      </note>
      <forward>
        <duration>4</duration>
        <voice>6</voice>
        <staff>2</staff>
      </forward>
      <note print-object="no" print-spacing="no">
        <pitch>
          <step>A</step>
          <octave>1</octave>
        </pitch>
        <duration>192</duration>
        <voice>6</voice>
        <type>32nd</type>
        <dot/>
        <stem>up</stem>
        <staff>2</staff>
        <beam number="1">begin</beam>
        <beam number="2">begin</beam>
        <beam number="3">begin</beam>
      </note>
      <note print-object="no" print-spacing="no">
        <pitch>
          <step>A</step>
          <octave>2</octave>
        </pitch>
        <duration>192</duration>
        <voice>6</voice>
        <type>32nd</type>
        <dot/>
        <stem>up</stem>
        <staff>2</staff>
        <beam number="1">continue</beam>
        <beam number="2">continue</beam>
        <beam number="3">continue</beam>
      </note>
      <note print-object="no" print-spacing="no">
        <pitch>
          <step>A</step>
          <octave>1</octave>
        </pitch>
        <duration>192</duration>
        <voice>6</voice>
        <type>32nd</type>
        <dot/>
        <stem>up</stem>
        <staff>2</staff>
        <beam number="1">continue</beam>
        <beam number="2">continue</beam>
        <beam number="3">continue</beam>
      </note>
      <note print-object="no" print-spacing="no">
        <pitch>
          <step>A</step>
          <octave>2</octave>
        </pitch>
        <duration>192</duration>
        <voice>6</voice>
        <type>32nd</type>
        <dot/>
        <stem>up</stem>
        <staff>2</staff>
        <beam number="1">continue</beam>
        <beam number="2">continue</beam>
        <beam number="3">continue</beam>
      </note>
      <note print-object="no" print-spacing="no">
        <pitch>
          <step>A</step>
          <octave>1</octave>
        </pitch>
        <duration>192</duration>
        <voice>6</voice>
        <type>32nd</type>
        <dot/>
        <stem>up</stem>
        <staff>2</staff>
        <beam number="1">continue</beam>
        <beam number="2">continue</beam>
        <beam number="3">continue</beam>
      </note>
      <note print-object="no" print-spacing="no">
        <pitch>
          <step>A</step>
          <octave>2</octave>
        </pitch>
        <duration>192</duration>
        <voice>6</voice>
        <type>32nd</type>
        <dot/>
        <stem>up</stem>
        <staff>2</staff>
        <beam number="1">continue</beam>
        <beam number="2">continue</beam>
        <beam number="3">continue</beam>
      </note>
      <note print-object="no" print-spacing="no">
        <pitch>
          <step>A</step>
          <octave>1</octave>
        </pitch>
        <duration>192</duration>
        <voice>6</voice>
        <type>32nd</type>
        <dot/>
        <stem>up</stem>
        <staff>2</staff>
        <beam number="1">continue</beam>
        <beam number="2">continue</beam>
        <beam number="3">continue</beam>
      </note>
      <note print-object="no" print-spacing="no">
        <pitch>
          <step>A</step>
          <octave>2</octave>
        </pitch>
        <duration>192</duration>
        <voice>6</voice>
        <type>32nd</type>
        <dot/>
        <stem>up</stem>
        <staff>2</staff>
        <beam number="1">continue</beam>
        <beam number="2">continue</beam>
        <beam number="3">continue</beam>
      </note>
      <note print-object="no" print-spacing="no">
        <pitch>
          <step>A</step>
          <octave>1</octave>
        </pitch>
        <duration>192</duration>
        <voice>6</voice>
        <type>32nd</type>
        <dot/>
        <stem>up</stem>
        <staff>2</staff>
        <beam number="1">continue</beam>
        <beam number="2">continue</beam>
        <beam number="3">continue</beam>
      </note>
      <note print-object="no" print-spacing="no">
        <pitch>
          <step>A</step>
          <octave>2</octave>
        </pitch>
        <duration>192</duration>
        <voice>6</voice>
        <type>32nd</type>
        <dot/>
        <stem>up</stem>
        <staff>2</staff>
        <beam number="1">continue</beam>
        <beam number="2">continue</beam>
        <beam number="3">continue</beam>
      </note>
      <note print-object="no" print-spacing="no">
        <pitch>
          <step>A</step>
          <octave>1</octave>
        </pitch>
        <duration>192</duration>
        <voice>6</voice>
        <type>32nd</type>
        <dot/>
        <stem>up</stem>
        <staff>2</staff>
        <beam number="1">continue</beam>
        <beam number="2">continue</beam>
        <beam number="3">continue</beam>
      </note>
      <note print-object="no" print-spacing="no">
        <pitch>
          <step>A</step>
          <octave>2</octave>
        </pitch>
        <duration>192</duration>
        <voice>6</voice>
        <type>32nd</type>
        <dot/>
        <stem>up</stem>
        <staff>2</staff>
        <beam number="1">continue</beam>
        <beam number="2">continue</beam>
        <beam number="3">continue</beam>
      </note>
      <note print-object="no" print-spacing="no">
        <pitch>
          <step>A</step>
          <octave>1</octave>
        </pitch>
        <duration>192</duration>
        <voice>6</voice>
        <type>32nd</type>
        <dot/>
        <stem>up</stem>
        <staff>2</staff>
        <beam number="1">continue</beam>
        <beam number="2">continue</beam>
        <beam number="3">continue</beam>
      </note>
      <note print-object="no" print-spacing="no">
        <pitch>
          <step>A</step>
          <octave>2</octave>
        </pitch>
        <duration>192</duration>
        <voice>6</voice>
        <type>32nd</type>
        <dot/>
        <stem>up</stem>
        <staff>2</staff>
        <beam number="1">continue</beam>
        <beam number="2">continue</beam>
        <beam number="3">continue</beam>
      </note>
      <note print-object="no" print-spacing="no">
        <pitch>
          <step>A</step>
          <octave>1</octave>
        </pitch>
        <duration>192</duration>
        <voice>6</voice>
        <type>32nd</type>
        <dot/>
        <stem>up</stem>
        <staff>2</staff>
        <beam number="1">continue</beam>
        <beam number="2">continue</beam>
        <beam number="3">continue</beam>
      </note>
      <note print-object="no" print-spacing="no">
        <pitch>
          <step>A</step>
          <octave>2</octave>
        </pitch>
        <duration>192</duration>
        <voice>6</voice>
        <type>32nd</type>
        <dot/>
        <stem>up</stem>
        <staff>2</staff>
        <beam number="1">end</beam>
        <beam number="2">end</beam>
        <beam number="3">end</beam>
      </note>
      <barline location="right">
        <bar-style>light-heavy</bar-style>
      </barline>
    </measure>
  </part>
  <!--=========================================================-->
</score-partwise>
