<?xml version="1.0" encoding="UTF-8"?>
<!DOCTYPE score-partwise PUBLIC "-//Recordare//DTD MusicXML 2.0 Partwise//EN"
                                "http://www.musicxml.org/dtds/partwise.dtd">
<score-partwise version="2.0">
  <movement-title>156-157a</movement-title>
  <identification>
    <rights>©</rights>
    <encoding>
      <software>Finale 2010 for Windows</software>
      <software>Dolet Light for Finale 2010</software>
      <encoding-date>2009-10-14</encoding-date>
      <supports attribute="new-system" element="print" type="yes" value="yes"/>
      <supports attribute="new-page" element="print" type="yes" value="yes"/>
    </encoding>
  </identification>
  <defaults>
    <scaling>
      <millimeters>6.1666</millimeters>
      <tenths>40</tenths>
    </scaling>
    <page-layout>
      <page-height>1812</page-height>
      <page-width>1400</page-width>
      <page-margins type="both">
        <left-margin>165</left-margin>
        <right-margin>82</right-margin>
        <top-margin>103</top-margin>
        <bottom-margin>103</bottom-margin>
      </page-margins>
    </page-layout>
    <system-layout>
      <system-margins>
        <left-margin>0</left-margin>
        <right-margin>0</right-margin>
      </system-margins>
      <system-distance>98</system-distance>
      <top-system-distance>39</top-system-distance>
    </system-layout>
    <staff-layout>
      <staff-distance>80</staff-distance>
    </staff-layout>
    <appearance>
      <line-width type="stem">0.7487</line-width>
      <line-width type="beam">5</line-width>
      <line-width type="staff">0.7487</line-width>
      <line-width type="light barline">0.7487</line-width>
      <line-width type="heavy barline">5</line-width>
      <line-width type="leger">0.7487</line-width>
      <line-width type="ending">1.4583</line-width>
      <line-width type="wedge">0.7487</line-width>
      <line-width type="enclosure">0.7487</line-width>
      <line-width type="tuplet bracket">0.7487</line-width>
      <note-size type="grace">60</note-size>
      <note-size type="cue">60</note-size>
    </appearance>
    <music-font font-family="Maestro" font-size="17.5"/>
    <word-font font-family="Times New Roman" font-size="8.7"/>
  </defaults>
  <credit page="1">
    <credit-words default-x="741" default-y="1709" font-size="24" font-weight="bold" justify="center" valign="top">156-157a</credit-words>
  </credit>
  <credit page="1">
    <credit-words default-x="175" default-y="89" font-size="12" valign="top">Transcriber's Note: In bar 3, the next-to-last note in the solo violin part is beyond the range of the Garritan instrument sounds used to create the MP3 file.</credit-words>
  </credit>
  <part-list>
    <score-part id="P1">
      <part-name>Solo Violin</part-name>
      <part-abbreviation>Vln.</part-abbreviation>
      <score-instrument id="P1-I1">
        <instrument-name>Violin</instrument-name>
      </score-instrument>
      <midi-instrument id="P1-I1">
        <midi-channel>1</midi-channel>
        <midi-program>41</midi-program>
        <volume>80</volume>
        <pan>-70</pan>
      </midi-instrument>
    </score-part>
    <part-group number="1" type="start">
      <group-symbol default-x="-14">bracket</group-symbol>
      <group-barline>no</group-barline>
    </part-group>
    <part-group number="2" type="start">
      <group-symbol default-x="-7">bracket</group-symbol>
      <group-barline>yes</group-barline>
    </part-group>
    <score-part id="P2">
      <part-name>Violin 1</part-name>
      <part-abbreviation>Vln. 1</part-abbreviation>
      <score-instrument id="P2-I2">
        <instrument-name>Violin 1</instrument-name>
      </score-instrument>
      <midi-instrument id="P2-I2">
        <midi-channel>2</midi-channel>
        <midi-program>49</midi-program>
        <volume>80</volume>
        <pan>-41</pan>
      </midi-instrument>
    </score-part>
    <score-part id="P3">
      <part-name>Violin 2</part-name>
      <part-abbreviation>Vln. 2</part-abbreviation>
      <score-instrument id="P3-I3">
        <instrument-name>Violin 2</instrument-name>
      </score-instrument>
      <midi-instrument id="P3-I3">
        <midi-channel>3</midi-channel>
        <midi-program>49</midi-program>
        <volume>80</volume>
        <pan>-11</pan>
      </midi-instrument>
    </score-part>
    <part-group number="1" type="stop"/>
    <score-part id="P4">
      <part-name>Viola</part-name>
      <part-abbreviation>Vla.</part-abbreviation>
      <score-instrument id="P4-I4">
        <instrument-name>Viola</instrument-name>
      </score-instrument>
      <midi-instrument id="P4-I4">
        <midi-channel>4</midi-channel>
        <midi-program>49</midi-program>
        <volume>80</volume>
        <pan>19</pan>
      </midi-instrument>
    </score-part>
    <score-part id="P5">
      <part-name>Cello</part-name>
      <part-abbreviation>Vc.</part-abbreviation>
      <score-instrument id="P5-I5">
        <instrument-name>Cello</instrument-name>
      </score-instrument>
      <midi-instrument id="P5-I5">
        <midi-channel>5</midi-channel>
        <midi-program>49</midi-program>
        <volume>80</volume>
        <pan>49</pan>
      </midi-instrument>
    </score-part>
    <score-part id="P6">
      <part-name>Double Bass</part-name>
      <part-abbreviation>D.B.</part-abbreviation>
      <score-instrument id="P6-I6">
        <instrument-name>Double Bass</instrument-name>
      </score-instrument>
      <midi-instrument id="P6-I6">
        <midi-channel>6</midi-channel>
        <midi-program>49</midi-program>
        <volume>80</volume>
        <pan>80</pan>
      </midi-instrument>
    </score-part>
    <part-group number="2" type="stop"/>
  </part-list>
  <!--=========================================================-->
  <part id="P1">
    <measure number="1" width="390">
      <print>
        <system-layout>
          <system-margins>
            <left-margin>2</left-margin>
            <right-margin>0</right-margin>
          </system-margins>
          <top-system-distance>201</top-system-distance>
        </system-layout>
      </print>
      <attributes>
        <divisions>1024</divisions>
        <key>
          <fifths>2</fifths>
          <mode>major</mode>
        </key>
        <time>
          <beats>4</beats>
          <beat-type>4</beat-type>
        </time>
        <clef>
          <sign>G</sign>
          <line>2</line>
        </clef>
      </attributes>
      <sound tempo="120"/>
      <direction placement="below">
        <direction-type>
          <dynamics default-x="115" default-y="-73">
            <p/>
          </dynamics>
        </direction-type>
        <sound dynamics="54"/>
      </direction>
      <note default-x="124">
        <pitch>
          <step>E</step>
          <octave>6</octave>
        </pitch>
        <duration>2048</duration>
        <tie type="start"/>
        <voice>1</voice>
        <type>half</type>
        <stem default-y="-20">down</stem>
        <notations>
          <tied type="start"/>
        </notations>
      </note>
      <note default-x="256">
        <pitch>
          <step>E</step>
          <octave>6</octave>
        </pitch>
        <duration>512</duration>
        <tie type="stop"/>
        <voice>1</voice>
        <type>eighth</type>
        <stem default-y="-20">down</stem>
        <beam number="1">begin</beam>
        <notations>
          <tied type="stop"/>
          <slur number="1" placement="above" type="start"/>
        </notations>
      </note>
      <note default-x="289">
        <pitch>
          <step>C</step>
          <alter>1</alter>
          <octave>6</octave>
        </pitch>
        <duration>512</duration>
        <voice>1</voice>
        <type>eighth</type>
        <stem default-y="-20">down</stem>
        <beam number="1">continue</beam>
      </note>
      <note default-x="322">
        <pitch>
          <step>D</step>
          <octave>6</octave>
        </pitch>
        <duration>512</duration>
        <voice>1</voice>
        <type>eighth</type>
        <stem default-y="-20">down</stem>
        <beam number="1">continue</beam>
      </note>
      <note default-x="356">
        <pitch>
          <step>D</step>
          <alter>1</alter>
          <octave>6</octave>
        </pitch>
        <duration>512</duration>
        <voice>1</voice>
        <type>eighth</type>
        <accidental>sharp</accidental>
        <stem default-y="-20">down</stem>
        <beam number="1">end</beam>
        <notations>
          <slur number="1" type="stop"/>
        </notations>
      </note>
    </measure>
    <!--=======================================================-->
    <measure number="2" width="319">
      <note default-x="16">
        <pitch>
          <step>E</step>
          <octave>6</octave>
        </pitch>
        <duration>512</duration>
        <voice>1</voice>
        <type>eighth</type>
        <stem default-y="-20">down</stem>
        <beam number="1">begin</beam>
        <notations>
          <slur number="1" placement="above" type="start"/>
        </notations>
      </note>
      <note default-x="52">
        <pitch>
          <step>C</step>
          <alter>1</alter>
          <octave>6</octave>
        </pitch>
        <duration>512</duration>
        <voice>1</voice>
        <type>eighth</type>
        <stem default-y="-20">down</stem>
        <beam number="1">continue</beam>
      </note>
      <note default-x="88">
        <pitch>
          <step>D</step>
          <octave>6</octave>
        </pitch>
        <duration>512</duration>
        <voice>1</voice>
        <type>eighth</type>
        <stem default-y="-20">down</stem>
        <beam number="1">continue</beam>
      </note>
      <note default-x="124">
        <pitch>
          <step>E</step>
          <octave>6</octave>
        </pitch>
        <duration>512</duration>
        <voice>1</voice>
        <type>eighth</type>
        <stem default-y="-20">down</stem>
        <beam number="1">end</beam>
        <notations>
          <slur number="1" type="stop"/>
        </notations>
      </note>
      <note default-x="154">
        <grace/>
        <pitch>
          <step>G</step>
          <alter>1</alter>
          <octave>6</octave>
        </pitch>
        <voice>1</voice>
        <type>16th</type>
        <accidental>sharp</accidental>
        <stem default-y="61.5">up</stem>
        <notations>
          <slur number="1" placement="below" type="start"/>
        </notations>
      </note>
      <note default-x="176">
        <pitch>
          <step>F</step>
          <alter>1</alter>
          <octave>6</octave>
        </pitch>
        <duration>512</duration>
        <voice>1</voice>
        <type>eighth</type>
        <stem default-y="-20">down</stem>
        <beam number="1">begin</beam>
        <notations>
          <slur number="1" type="stop"/>
          <slur number="1" placement="above" type="start"/>
        </notations>
      </note>
      <note default-x="211">
        <pitch>
          <step>E</step>
          <octave>6</octave>
        </pitch>
        <duration>512</duration>
        <voice>1</voice>
        <type>eighth</type>
        <stem default-y="-20">down</stem>
        <beam number="1">continue</beam>
      </note>
      <note default-x="247">
        <pitch>
          <step>F</step>
          <alter>1</alter>
          <octave>6</octave>
        </pitch>
        <duration>512</duration>
        <voice>1</voice>
        <type>eighth</type>
        <stem default-y="-20">down</stem>
        <beam number="1">continue</beam>
      </note>
      <note default-x="283">
        <pitch>
          <step>G</step>
          <alter>1</alter>
          <octave>6</octave>
        </pitch>
        <duration>512</duration>
        <voice>1</voice>
        <type>eighth</type>
        <stem default-y="-20">down</stem>
        <beam number="1">end</beam>
        <notations>
          <slur number="1" type="stop"/>
        </notations>
      </note>
    </measure>
    <!--=======================================================-->
    <measure number="3" width="294">
      <note default-x="16">
        <pitch>
          <step>A</step>
          <octave>6</octave>
        </pitch>
        <duration>512</duration>
        <voice>1</voice>
        <type>eighth</type>
        <stem default-y="-20">down</stem>
        <beam number="1">begin</beam>
        <notations>
          <slur number="1" placement="above" type="start"/>
        </notations>
      </note>
      <note default-x="51">
        <pitch>
          <step>G</step>
          <alter>1</alter>
          <octave>6</octave>
        </pitch>
        <duration>512</duration>
        <voice>1</voice>
        <type>eighth</type>
        <accidental>sharp</accidental>
        <stem default-y="-20">down</stem>
        <beam number="1">continue</beam>
      </note>
      <note default-x="86">
        <pitch>
          <step>A</step>
          <octave>6</octave>
        </pitch>
        <duration>512</duration>
        <voice>1</voice>
        <type>eighth</type>
        <stem default-y="-20">down</stem>
        <beam number="1">continue</beam>
      </note>
      <note default-x="120">
        <pitch>
          <step>B</step>
          <octave>6</octave>
        </pitch>
        <duration>512</duration>
        <voice>1</voice>
        <type>eighth</type>
        <stem default-y="-20">down</stem>
        <beam number="1">end</beam>
        <notations>
          <slur number="1" type="stop"/>
        </notations>
      </note>
      <note default-x="155">
        <pitch>
          <step>C</step>
          <alter>1</alter>
          <octave>7</octave>
        </pitch>
        <duration>512</duration>
        <voice>1</voice>
        <type>eighth</type>
        <stem default-y="-20">down</stem>
        <beam number="1">begin</beam>
        <notations>
          <articulations>
            <staccato default-x="3" default-y="65" placement="above"/>
          </articulations>
        </notations>
      </note>
      <note default-x="189">
        <pitch>
          <step>A</step>
          <octave>6</octave>
        </pitch>
        <duration>512</duration>
        <voice>1</voice>
        <type>eighth</type>
        <stem default-y="-20">down</stem>
        <beam number="1">continue</beam>
        <notations>
          <articulations>
            <staccato default-x="3" default-y="55" placement="above"/>
          </articulations>
        </notations>
      </note>
      <note default-x="224">
        <pitch>
          <step>E</step>
          <octave>7</octave>
        </pitch>
        <duration>512</duration>
        <voice>1</voice>
        <type>eighth</type>
        <stem default-y="-20">down</stem>
        <beam number="1">end</beam>
        <notations>
          <articulations>
            <staccato default-x="3" default-y="75" placement="above"/>
          </articulations>
        </notations>
      </note>
      <note default-x="258">
        <pitch>
          <step>A</step>
          <octave>5</octave>
        </pitch>
        <duration>512</duration>
        <voice>1</voice>
        <type>eighth</type>
        <stem default-y="-25">down</stem>
      </note>
    </measure>
    <!--=======================================================-->
    <measure number="4" width="150">
      <direction placement="below">
        <direction-type>
          <dynamics default-x="7" default-y="-73">
            <p/>
          </dynamics>
        </direction-type>
        <sound dynamics="54"/>
      </direction>
      <note default-x="16">
        <pitch>
          <step>B</step>
          <octave>5</octave>
        </pitch>
        <duration>4096</duration>
        <tie type="start"/>
        <voice>1</voice>
        <type>whole</type>
        <notations>
          <tied type="start"/>
          <ornaments>
            <trill-mark default-y="35"/>
            <wavy-line default-y="35" number="1" type="start"/>
          </ornaments>
        </notations>
      </note>
    </measure>
    <!--=======================================================-->
    <measure number="5" width="302">
      <print new-system="yes">
        <system-layout>
          <system-distance>86</system-distance>
        </system-layout>
      </print>
      <note default-x="96">
        <pitch>
          <step>B</step>
          <octave>5</octave>
        </pitch>
        <duration>4096</duration>
        <tie type="stop"/>
        <tie type="start"/>
        <voice>1</voice>
        <type>whole</type>
        <notations>
          <tied type="stop"/>
          <tied type="start"/>
        </notations>
      </note>
    </measure>
    <!--=======================================================-->
    <measure number="6" width="122">
      <note default-x="25">
        <pitch>
          <step>B</step>
          <octave>5</octave>
        </pitch>
        <duration>4096</duration>
        <tie type="stop"/>
        <tie type="start"/>
        <voice>1</voice>
        <type>whole</type>
        <notations>
          <tied type="stop"/>
          <tied type="start"/>
        </notations>
      </note>
    </measure>
    <!--=======================================================-->
    <measure number="7" width="222">
      <note default-x="16">
        <pitch>
          <step>B</step>
          <octave>5</octave>
        </pitch>
        <duration>4096</duration>
        <tie type="stop"/>
        <voice>1</voice>
        <type>whole</type>
        <notations>
          <tied type="stop"/>
          <ornaments>
            <wavy-line default-y="39" number="1" relative-x="169" type="stop"/>
          </ornaments>
        </notations>
      </note>
    </measure>
    <!--=======================================================-->
    <measure number="8" width="122">
      <direction placement="above">
        <direction-type>
          <other-direction default-y="32" print-object="no">HP off</other-direction>
        </direction-type>
      </direction>
      <note default-x="25">
        <pitch>
          <step>B</step>
          <octave>5</octave>
        </pitch>
        <duration>4096</duration>
        <tie type="start"/>
        <voice>1</voice>
        <type>whole</type>
        <notations>
          <tied type="start"/>
          <ornaments>
            <trill-mark default-y="39" relative-x="-21"/>
            <wavy-line default-y="39" number="1" type="start"/>
          </ornaments>
        </notations>
      </note>
      <backup>
        <duration>4096</duration>
      </backup>
      <note print-object="no" print-spacing="no">
        <pitch>
          <step>B</step>
          <octave>5</octave>
        </pitch>
        <duration>126</duration>
        <voice>2</voice>
        <stem>down</stem>
      </note>
      <note print-object="no" print-spacing="no">
        <pitch>
          <step>C</step>
          <octave>6</octave>
        </pitch>
        <duration>126</duration>
        <voice>2</voice>
        <stem>down</stem>
      </note>
      <note print-object="no" print-spacing="no">
        <pitch>
          <step>B</step>
          <octave>5</octave>
        </pitch>
        <duration>126</duration>
        <voice>2</voice>
        <stem>down</stem>
      </note>
      <note print-object="no" print-spacing="no">
        <pitch>
          <step>C</step>
          <octave>6</octave>
        </pitch>
        <duration>126</duration>
        <voice>2</voice>
        <stem>down</stem>
      </note>
      <note print-object="no" print-spacing="no">
        <pitch>
          <step>B</step>
          <octave>5</octave>
        </pitch>
        <duration>126</duration>
        <voice>2</voice>
        <stem>down</stem>
      </note>
      <note print-object="no" print-spacing="no">
        <pitch>
          <step>C</step>
          <octave>6</octave>
        </pitch>
        <duration>126</duration>
        <voice>2</voice>
        <stem>down</stem>
      </note>
      <note print-object="no" print-spacing="no">
        <pitch>
          <step>B</step>
          <octave>5</octave>
        </pitch>
        <duration>126</duration>
        <voice>2</voice>
        <stem>down</stem>
      </note>
      <note print-object="no" print-spacing="no">
        <pitch>
          <step>C</step>
          <octave>6</octave>
        </pitch>
        <duration>126</duration>
        <voice>2</voice>
        <stem>down</stem>
      </note>
      <note print-object="no" print-spacing="no">
        <pitch>
          <step>B</step>
          <octave>5</octave>
        </pitch>
        <duration>126</duration>
        <voice>2</voice>
        <stem>down</stem>
      </note>
      <note print-object="no" print-spacing="no">
        <pitch>
          <step>C</step>
          <octave>6</octave>
        </pitch>
        <duration>126</duration>
        <voice>2</voice>
        <stem>down</stem>
      </note>
      <note print-object="no" print-spacing="no">
        <pitch>
          <step>B</step>
          <octave>5</octave>
        </pitch>
        <duration>126</duration>
        <voice>2</voice>
        <stem>down</stem>
      </note>
      <note print-object="no" print-spacing="no">
        <pitch>
          <step>C</step>
          <octave>6</octave>
        </pitch>
        <duration>126</duration>
        <voice>2</voice>
        <stem>down</stem>
      </note>
      <note print-object="no" print-spacing="no">
        <pitch>
          <step>B</step>
          <octave>5</octave>
        </pitch>
        <duration>126</duration>
        <voice>2</voice>
        <stem>down</stem>
      </note>
      <note print-object="no" print-spacing="no">
        <pitch>
          <step>C</step>
          <octave>6</octave>
        </pitch>
        <duration>126</duration>
        <voice>2</voice>
        <stem>down</stem>
      </note>
      <note print-object="no" print-spacing="no">
        <pitch>
          <step>B</step>
          <octave>5</octave>
        </pitch>
        <duration>126</duration>
        <voice>2</voice>
        <stem>down</stem>
      </note>
      <note print-object="no" print-spacing="no">
        <pitch>
          <step>C</step>
          <octave>6</octave>
        </pitch>
        <duration>126</duration>
        <voice>2</voice>
        <stem>down</stem>
      </note>
      <note print-object="no" print-spacing="no">
        <pitch>
          <step>B</step>
          <octave>5</octave>
        </pitch>
        <duration>126</duration>
        <voice>2</voice>
        <stem>down</stem>
      </note>
      <note print-object="no" print-spacing="no">
        <pitch>
          <step>C</step>
          <octave>6</octave>
        </pitch>
        <duration>126</duration>
        <voice>2</voice>
        <stem>down</stem>
      </note>
      <note print-object="no" print-spacing="no">
        <pitch>
          <step>B</step>
          <octave>5</octave>
        </pitch>
        <duration>126</duration>
        <voice>2</voice>
        <stem>down</stem>
      </note>
      <note print-object="no" print-spacing="no">
        <pitch>
          <step>C</step>
          <octave>6</octave>
        </pitch>
        <duration>126</duration>
        <voice>2</voice>
        <stem>down</stem>
      </note>
      <note print-object="no" print-spacing="no">
        <pitch>
          <step>B</step>
          <octave>5</octave>
        </pitch>
        <duration>126</duration>
        <voice>2</voice>
        <stem>down</stem>
      </note>
      <note print-object="no" print-spacing="no">
        <pitch>
          <step>C</step>
          <octave>6</octave>
        </pitch>
        <duration>126</duration>
        <voice>2</voice>
        <stem>down</stem>
      </note>
      <note print-object="no" print-spacing="no">
        <pitch>
          <step>B</step>
          <octave>5</octave>
        </pitch>
        <duration>126</duration>
        <voice>2</voice>
        <stem>down</stem>
      </note>
      <note print-object="no" print-spacing="no">
        <pitch>
          <step>C</step>
          <octave>6</octave>
        </pitch>
        <duration>126</duration>
        <voice>2</voice>
        <stem>down</stem>
      </note>
      <note print-object="no" print-spacing="no">
        <pitch>
          <step>B</step>
          <octave>5</octave>
        </pitch>
        <duration>126</duration>
        <voice>2</voice>
        <stem>down</stem>
      </note>
      <note print-object="no" print-spacing="no">
        <pitch>
          <step>C</step>
          <octave>6</octave>
        </pitch>
        <duration>126</duration>
        <voice>2</voice>
        <stem>down</stem>
      </note>
      <note print-object="no" print-spacing="no">
        <pitch>
          <step>B</step>
          <octave>5</octave>
        </pitch>
        <duration>126</duration>
        <voice>2</voice>
        <stem>down</stem>
      </note>
      <note print-object="no" print-spacing="no">
        <pitch>
          <step>C</step>
          <octave>6</octave>
        </pitch>
        <duration>126</duration>
        <voice>2</voice>
        <stem>down</stem>
      </note>
      <note print-object="no" print-spacing="no">
        <pitch>
          <step>B</step>
          <octave>5</octave>
        </pitch>
        <duration>126</duration>
        <voice>2</voice>
        <stem>down</stem>
      </note>
      <note print-object="no" print-spacing="no">
        <pitch>
          <step>C</step>
          <octave>6</octave>
        </pitch>
        <duration>126</duration>
        <voice>2</voice>
        <stem>down</stem>
      </note>
      <note print-object="no" print-spacing="no">
        <pitch>
          <step>B</step>
          <octave>5</octave>
        </pitch>
        <duration>126</duration>
        <voice>2</voice>
        <stem>down</stem>
      </note>
      <note print-object="no" print-spacing="no">
        <pitch>
          <step>C</step>
          <octave>6</octave>
        </pitch>
        <duration>126</duration>
        <voice>2</voice>
        <stem>down</stem>
      </note>
      <note print-object="no" print-spacing="no">
        <pitch>
          <step>B</step>
          <octave>5</octave>
        </pitch>
        <duration>64</duration>
        <tie type="start"/>
        <voice>2</voice>
        <type>64th</type>
        <stem>down</stem>
        <notations>
          <tied type="start"/>
        </notations>
      </note>
    </measure>
    <!--=======================================================-->
    <measure number="9" width="227">
      <note default-x="16">
        <pitch>
          <step>B</step>
          <octave>5</octave>
        </pitch>
        <duration>4096</duration>
        <tie type="stop"/>
        <voice>1</voice>
        <type>whole</type>
        <notations>
          <tied type="stop"/>
        </notations>
      </note>
      <backup>
        <duration>4096</duration>
      </backup>
      <note print-object="no" print-spacing="no">
        <pitch>
          <step>B</step>
          <octave>5</octave>
        </pitch>
        <duration>62</duration>
        <tie type="stop"/>
        <voice>2</voice>
        <type>128th</type>
        <dot/>
        <dot/>
        <dot/>
        <dot/>
        <stem>down</stem>
        <notations>
          <tied type="stop"/>
        </notations>
      </note>
      <note print-object="no" print-spacing="no">
        <pitch>
          <step>C</step>
          <octave>6</octave>
        </pitch>
        <duration>126</duration>
        <voice>2</voice>
        <stem>down</stem>
      </note>
      <note print-object="no" print-spacing="no">
        <pitch>
          <step>B</step>
          <octave>5</octave>
        </pitch>
        <duration>126</duration>
        <voice>2</voice>
        <stem>down</stem>
      </note>
      <note print-object="no" print-spacing="no">
        <pitch>
          <step>C</step>
          <octave>6</octave>
        </pitch>
        <duration>126</duration>
        <voice>2</voice>
        <stem>down</stem>
      </note>
      <note print-object="no" print-spacing="no">
        <pitch>
          <step>B</step>
          <octave>5</octave>
        </pitch>
        <duration>126</duration>
        <voice>2</voice>
        <stem>down</stem>
      </note>
      <note print-object="no" print-spacing="no">
        <pitch>
          <step>C</step>
          <octave>6</octave>
        </pitch>
        <duration>126</duration>
        <voice>2</voice>
        <stem>down</stem>
      </note>
      <note print-object="no" print-spacing="no">
        <pitch>
          <step>B</step>
          <octave>5</octave>
        </pitch>
        <duration>126</duration>
        <voice>2</voice>
        <stem>down</stem>
      </note>
      <note print-object="no" print-spacing="no">
        <pitch>
          <step>C</step>
          <octave>6</octave>
        </pitch>
        <duration>126</duration>
        <voice>2</voice>
        <stem>down</stem>
      </note>
      <note print-object="no" print-spacing="no">
        <pitch>
          <step>B</step>
          <octave>5</octave>
        </pitch>
        <duration>126</duration>
        <voice>2</voice>
        <stem>down</stem>
      </note>
      <note print-object="no" print-spacing="no">
        <pitch>
          <step>C</step>
          <octave>6</octave>
        </pitch>
        <duration>126</duration>
        <voice>2</voice>
        <stem>down</stem>
      </note>
      <note print-object="no" print-spacing="no">
        <pitch>
          <step>B</step>
          <octave>5</octave>
        </pitch>
        <duration>126</duration>
        <voice>2</voice>
        <stem>down</stem>
      </note>
      <note print-object="no" print-spacing="no">
        <pitch>
          <step>C</step>
          <octave>6</octave>
        </pitch>
        <duration>126</duration>
        <voice>2</voice>
        <stem>down</stem>
      </note>
      <note print-object="no" print-spacing="no">
        <pitch>
          <step>B</step>
          <octave>5</octave>
        </pitch>
        <duration>126</duration>
        <voice>2</voice>
        <stem>down</stem>
      </note>
      <note print-object="no" print-spacing="no">
        <pitch>
          <step>C</step>
          <octave>6</octave>
        </pitch>
        <duration>126</duration>
        <voice>2</voice>
        <stem>down</stem>
      </note>
      <note print-object="no" print-spacing="no">
        <pitch>
          <step>B</step>
          <octave>5</octave>
        </pitch>
        <duration>126</duration>
        <voice>2</voice>
        <stem>down</stem>
      </note>
      <note print-object="no" print-spacing="no">
        <pitch>
          <step>C</step>
          <octave>6</octave>
        </pitch>
        <duration>126</duration>
        <voice>2</voice>
        <stem>down</stem>
      </note>
      <note print-object="no" print-spacing="no">
        <pitch>
          <step>B</step>
          <octave>5</octave>
        </pitch>
        <duration>126</duration>
        <voice>2</voice>
        <stem>down</stem>
      </note>
      <note print-object="no" print-spacing="no">
        <pitch>
          <step>C</step>
          <octave>6</octave>
        </pitch>
        <duration>126</duration>
        <voice>2</voice>
        <stem>down</stem>
      </note>
      <note print-object="no" print-spacing="no">
        <pitch>
          <step>B</step>
          <octave>5</octave>
        </pitch>
        <duration>126</duration>
        <voice>2</voice>
        <stem>down</stem>
      </note>
      <note print-object="no" print-spacing="no">
        <pitch>
          <step>C</step>
          <octave>6</octave>
        </pitch>
        <duration>126</duration>
        <voice>2</voice>
        <stem>down</stem>
      </note>
      <note print-object="no" print-spacing="no">
        <pitch>
          <step>B</step>
          <octave>5</octave>
        </pitch>
        <duration>126</duration>
        <voice>2</voice>
        <stem>down</stem>
      </note>
      <note print-object="no" print-spacing="no">
        <pitch>
          <step>C</step>
          <octave>6</octave>
        </pitch>
        <duration>126</duration>
        <voice>2</voice>
        <stem>down</stem>
      </note>
      <note print-object="no" print-spacing="no">
        <pitch>
          <step>B</step>
          <octave>5</octave>
        </pitch>
        <duration>126</duration>
        <voice>2</voice>
        <stem>down</stem>
      </note>
      <note print-object="no" print-spacing="no">
        <pitch>
          <step>C</step>
          <octave>6</octave>
        </pitch>
        <duration>126</duration>
        <voice>2</voice>
        <stem>down</stem>
      </note>
      <note print-object="no" print-spacing="no">
        <pitch>
          <step>B</step>
          <octave>5</octave>
        </pitch>
        <duration>126</duration>
        <voice>2</voice>
        <stem>down</stem>
      </note>
      <note print-object="no" print-spacing="no">
        <pitch>
          <step>C</step>
          <octave>6</octave>
        </pitch>
        <duration>126</duration>
        <voice>2</voice>
        <stem>down</stem>
      </note>
      <note print-object="no" print-spacing="no">
        <pitch>
          <step>B</step>
          <octave>5</octave>
        </pitch>
        <duration>126</duration>
        <voice>2</voice>
        <stem>down</stem>
      </note>
      <note print-object="no" print-spacing="no">
        <pitch>
          <step>C</step>
          <octave>6</octave>
        </pitch>
        <duration>126</duration>
        <voice>2</voice>
        <stem>down</stem>
      </note>
      <note print-object="no" print-spacing="no">
        <pitch>
          <step>B</step>
          <octave>5</octave>
        </pitch>
        <duration>126</duration>
        <voice>2</voice>
        <stem>down</stem>
      </note>
      <note print-object="no" print-spacing="no">
        <pitch>
          <step>C</step>
          <octave>6</octave>
        </pitch>
        <duration>126</duration>
        <voice>2</voice>
        <stem>down</stem>
      </note>
      <note print-object="no" print-spacing="no">
        <pitch>
          <step>B</step>
          <octave>5</octave>
        </pitch>
        <duration>126</duration>
        <voice>2</voice>
        <stem>down</stem>
      </note>
      <note print-object="no" print-spacing="no">
        <pitch>
          <step>C</step>
          <octave>6</octave>
        </pitch>
        <duration>126</duration>
        <voice>2</voice>
        <stem>down</stem>
      </note>
      <note print-object="no" print-spacing="no">
        <pitch>
          <step>B</step>
          <octave>5</octave>
        </pitch>
        <duration>126</duration>
        <voice>2</voice>
        <stem>down</stem>
      </note>
      <forward>
        <duration>2</duration>
        <voice>2</voice>
      </forward>
    </measure>
    <!--=======================================================-->
    <measure number="10" width="159">
      <direction placement="above">
        <direction-type>
          <other-direction default-y="32" print-object="no">HP on</other-direction>
        </direction-type>
      </direction>
      <direction placement="above">
        <direction-type>
          <other-direction default-y="32" print-object="no">HP on</other-direction>
        </direction-type>
      </direction>
      <direction placement="above">
        <direction-type>
          <other-direction default-y="32" print-object="no">HP on</other-direction>
        </direction-type>
      </direction>
      <note default-x="25">
        <pitch>
          <step>C</step>
          <octave>6</octave>
        </pitch>
        <duration>2048</duration>
        <voice>1</voice>
        <type>half</type>
        <accidental>natural</accidental>
        <stem default-y="-20">down</stem>
      </note>
      <direction placement="below">
        <direction-type>
          <words default-y="-71" relative-x="11">etc.</words>
        </direction-type>
      </direction>
      <barline location="right">
        <bar-style>light-heavy</bar-style>
      </barline>
    </measure>
  </part>
  <!--=========================================================-->
  <part id="P2">
    <measure number="1" width="390">
      <attributes>
        <divisions>2</divisions>
        <key>
          <fifths>2</fifths>
          <mode>major</mode>
        </key>
        <time>
          <beats>4</beats>
          <beat-type>4</beat-type>
        </time>
        <clef>
          <sign>G</sign>
          <line>2</line>
        </clef>
      </attributes>
      <sound tempo="120"/>
      <note default-x="124">
        <rest/>
        <duration>1</duration>
        <voice>1</voice>
        <type>eighth</type>
      </note>
      <note default-x="157">
        <pitch>
          <step>C</step>
          <alter>1</alter>
          <octave>5</octave>
        </pitch>
        <duration>1</duration>
        <voice>1</voice>
        <type>eighth</type>
        <stem default-y="-49.5">down</stem>
        <beam number="1">begin</beam>
      </note>
      <note default-x="190">
        <pitch>
          <step>C</step>
          <alter>1</alter>
          <octave>5</octave>
        </pitch>
        <duration>1</duration>
        <voice>1</voice>
        <type>eighth</type>
        <stem default-y="-49.5">down</stem>
        <beam number="1">continue</beam>
      </note>
      <note default-x="223">
        <pitch>
          <step>C</step>
          <alter>1</alter>
          <octave>5</octave>
        </pitch>
        <duration>1</duration>
        <voice>1</voice>
        <type>eighth</type>
        <stem default-y="-49.5">down</stem>
        <beam number="1">end</beam>
      </note>
      <note default-x="256">
        <pitch>
          <step>C</step>
          <alter>1</alter>
          <octave>5</octave>
        </pitch>
        <duration>2</duration>
        <voice>1</voice>
        <type>quarter</type>
        <stem default-y="-50">down</stem>
      </note>
      <note default-x="323">
        <rest/>
        <duration>2</duration>
        <voice>1</voice>
        <type>quarter</type>
      </note>
    </measure>
    <!--=======================================================-->
    <measure number="2" width="319">
      <note>
        <rest/>
        <duration>8</duration>
        <voice>1</voice>
      </note>
    </measure>
    <!--=======================================================-->
    <measure number="3" width="294">
      <note>
        <rest/>
        <duration>8</duration>
        <voice>1</voice>
      </note>
    </measure>
    <!--=======================================================-->
    <measure number="4" width="150">
      <note>
        <rest/>
        <duration>8</duration>
        <voice>1</voice>
      </note>
    </measure>
    <!--=======================================================-->
    <measure number="5" width="302">
      <print new-system="yes"/>
      <direction placement="below">
        <direction-type>
          <dynamics default-x="78" default-y="-73">
            <pp/>
          </dynamics>
        </direction-type>
        <sound dynamics="40"/>
      </direction>
      <note default-x="96">
        <pitch>
          <step>E</step>
          <octave>4</octave>
        </pitch>
        <duration>1</duration>
        <voice>1</voice>
        <type>eighth</type>
        <stem default-y="-4.5">up</stem>
      </note>
      <note default-x="123">
        <rest/>
        <duration>1</duration>
        <voice>1</voice>
        <type>eighth</type>
      </note>
      <note default-x="147">
        <pitch>
          <step>E</step>
          <octave>4</octave>
        </pitch>
        <duration>1</duration>
        <voice>1</voice>
        <type>eighth</type>
        <stem default-y="-4.5">up</stem>
      </note>
      <note default-x="174">
        <rest/>
        <duration>1</duration>
        <voice>1</voice>
        <type>eighth</type>
      </note>
      <note default-x="198">
        <pitch>
          <step>E</step>
          <octave>4</octave>
        </pitch>
        <duration>1</duration>
        <voice>1</voice>
        <type>eighth</type>
        <stem default-y="-4.5">up</stem>
      </note>
      <note default-x="225">
        <rest/>
        <duration>1</duration>
        <voice>1</voice>
        <type>eighth</type>
      </note>
      <note default-x="249">
        <pitch>
          <step>E</step>
          <octave>4</octave>
        </pitch>
        <duration>1</duration>
        <voice>1</voice>
        <type>eighth</type>
        <stem default-y="-4.5">up</stem>
      </note>
      <note default-x="277">
        <rest/>
        <duration>1</duration>
        <voice>1</voice>
        <type>eighth</type>
      </note>
    </measure>
    <!--=======================================================-->
    <measure number="6" width="122">
      <note>
        <rest/>
        <duration>8</duration>
        <voice>1</voice>
      </note>
    </measure>
    <!--=======================================================-->
    <measure number="7" width="222">
      <note default-x="16">
        <pitch>
          <step>E</step>
          <octave>4</octave>
        </pitch>
        <duration>1</duration>
        <voice>1</voice>
        <type>eighth</type>
        <stem default-y="-4.5">up</stem>
      </note>
      <note default-x="44">
        <rest/>
        <duration>1</duration>
        <voice>1</voice>
        <type>eighth</type>
      </note>
      <note default-x="68">
        <pitch>
          <step>E</step>
          <octave>4</octave>
        </pitch>
        <duration>1</duration>
        <voice>1</voice>
        <type>eighth</type>
        <stem default-y="-4.5">up</stem>
      </note>
      <note default-x="95">
        <rest/>
        <duration>1</duration>
        <voice>1</voice>
        <type>eighth</type>
      </note>
      <note default-x="119">
        <pitch>
          <step>E</step>
          <octave>4</octave>
        </pitch>
        <duration>1</duration>
        <voice>1</voice>
        <type>eighth</type>
        <stem default-y="-4.5">up</stem>
      </note>
      <note default-x="147">
        <rest/>
        <duration>1</duration>
        <voice>1</voice>
        <type>eighth</type>
      </note>
      <note default-x="171">
        <pitch>
          <step>E</step>
          <octave>4</octave>
        </pitch>
        <duration>1</duration>
        <voice>1</voice>
        <type>eighth</type>
        <stem default-y="-4.5">up</stem>
      </note>
      <note default-x="198">
        <rest/>
        <duration>1</duration>
        <voice>1</voice>
        <type>eighth</type>
      </note>
    </measure>
    <!--=======================================================-->
    <measure number="8" width="122">
      <note default-x="25">
        <pitch>
          <step>F</step>
          <octave>4</octave>
        </pitch>
        <duration>8</duration>
        <tie type="start"/>
        <voice>1</voice>
        <type>whole</type>
        <accidental>natural</accidental>
        <notations>
          <tied type="start"/>
        </notations>
      </note>
    </measure>
    <!--=======================================================-->
    <measure number="9" width="227">
      <note default-x="16">
        <pitch>
          <step>F</step>
          <octave>4</octave>
        </pitch>
        <duration>1</duration>
        <tie type="stop"/>
        <voice>1</voice>
        <type>eighth</type>
        <stem default-y="0.5">up</stem>
        <notations>
          <tied type="stop"/>
        </notations>
      </note>
      <note default-x="44">
        <rest/>
        <duration>1</duration>
        <voice>1</voice>
        <type>eighth</type>
      </note>
      <note default-x="70">
        <pitch>
          <step>F</step>
          <octave>4</octave>
        </pitch>
        <duration>1</duration>
        <voice>1</voice>
        <type>eighth</type>
        <accidental>natural</accidental>
        <stem default-y="0.5">up</stem>
      </note>
      <note default-x="98">
        <rest/>
        <duration>1</duration>
        <voice>1</voice>
        <type>eighth</type>
      </note>
      <note default-x="123">
        <pitch>
          <step>F</step>
          <octave>4</octave>
        </pitch>
        <duration>1</duration>
        <voice>1</voice>
        <type>eighth</type>
        <stem default-y="0.5">up</stem>
      </note>
      <note default-x="150">
        <rest/>
        <duration>1</duration>
        <voice>1</voice>
        <type>eighth</type>
      </note>
      <note default-x="175">
        <pitch>
          <step>F</step>
          <octave>4</octave>
        </pitch>
        <duration>1</duration>
        <voice>1</voice>
        <type>eighth</type>
        <stem default-y="0.5">up</stem>
      </note>
      <note default-x="202">
        <rest/>
        <duration>1</duration>
        <voice>1</voice>
        <type>eighth</type>
      </note>
    </measure>
    <!--=======================================================-->
    <measure number="10" width="159">
      <note default-x="25">
        <pitch>
          <step>E</step>
          <octave>4</octave>
        </pitch>
        <duration>2</duration>
        <voice>1</voice>
        <type>quarter</type>
        <stem default-y="-4.5">up</stem>
      </note>
      <note default-x="59">
        <pitch>
          <step>E</step>
          <octave>4</octave>
        </pitch>
        <duration>2</duration>
        <voice>1</voice>
        <type>quarter</type>
        <stem default-y="-4.5">up</stem>
      </note>
      <barline location="right">
        <bar-style>light-heavy</bar-style>
      </barline>
    </measure>
  </part>
  <!--=========================================================-->
  <part id="P3">
    <measure number="1" width="390">
      <attributes>
        <divisions>2</divisions>
        <key>
          <fifths>2</fifths>
          <mode>major</mode>
        </key>
        <time>
          <beats>4</beats>
          <beat-type>4</beat-type>
        </time>
        <clef>
          <sign>G</sign>
          <line>2</line>
        </clef>
      </attributes>
      <sound tempo="120"/>
      <note default-x="124">
        <rest/>
        <duration>1</duration>
        <voice>1</voice>
        <type>eighth</type>
      </note>
      <note default-x="157">
        <pitch>
          <step>A</step>
          <octave>4</octave>
        </pitch>
        <duration>1</duration>
        <voice>1</voice>
        <type>eighth</type>
        <stem default-y="10">up</stem>
        <beam number="1">begin</beam>
      </note>
      <note default-x="190">
        <pitch>
          <step>A</step>
          <octave>4</octave>
        </pitch>
        <duration>1</duration>
        <voice>1</voice>
        <type>eighth</type>
        <stem default-y="10">up</stem>
        <beam number="1">continue</beam>
      </note>
      <note default-x="223">
        <pitch>
          <step>A</step>
          <octave>4</octave>
        </pitch>
        <duration>1</duration>
        <voice>1</voice>
        <type>eighth</type>
        <stem default-y="10">up</stem>
        <beam number="1">end</beam>
      </note>
      <note default-x="256">
        <pitch>
          <step>A</step>
          <octave>4</octave>
        </pitch>
        <duration>2</duration>
        <voice>1</voice>
        <type>quarter</type>
        <stem default-y="11">up</stem>
      </note>
      <note default-x="323">
        <rest/>
        <duration>2</duration>
        <voice>1</voice>
        <type>quarter</type>
      </note>
    </measure>
    <!--=======================================================-->
    <measure number="2" width="319">
      <note>
        <rest/>
        <duration>8</duration>
        <voice>1</voice>
      </note>
    </measure>
    <!--=======================================================-->
    <measure number="3" width="294">
      <note>
        <rest/>
        <duration>8</duration>
        <voice>1</voice>
      </note>
    </measure>
    <!--=======================================================-->
    <measure number="4" width="150">
      <note>
        <rest/>
        <duration>8</duration>
        <voice>1</voice>
      </note>
    </measure>
    <!--=======================================================-->
    <measure number="5" width="302">
      <print new-system="yes"/>
      <note>
        <rest/>
        <duration>8</duration>
        <voice>1</voice>
      </note>
    </measure>
    <!--=======================================================-->
    <measure number="6" width="122">
      <note>
        <rest/>
        <duration>8</duration>
        <voice>1</voice>
      </note>
    </measure>
    <!--=======================================================-->
    <measure number="7" width="222">
      <note>
        <rest/>
        <duration>8</duration>
        <voice>1</voice>
      </note>
    </measure>
    <!--=======================================================-->
    <measure number="8" width="122">
      <note>
        <rest/>
        <duration>8</duration>
        <voice>1</voice>
      </note>
    </measure>
    <!--=======================================================-->
    <measure number="9" width="227">
      <direction placement="below">
        <direction-type>
          <dynamics default-x="-2" default-y="-73">
            <pp/>
          </dynamics>
        </direction-type>
        <sound dynamics="40"/>
      </direction>
      <note default-x="16">
        <pitch>
          <step>D</step>
          <octave>4</octave>
        </pitch>
        <duration>1</duration>
        <voice>1</voice>
        <type>eighth</type>
        <stem default-y="-10">up</stem>
      </note>
      <note default-x="44">
        <rest/>
        <duration>1</duration>
        <voice>1</voice>
        <type>eighth</type>
      </note>
      <note default-x="70">
        <pitch>
          <step>D</step>
          <octave>4</octave>
        </pitch>
        <duration>1</duration>
        <voice>1</voice>
        <type>eighth</type>
        <stem default-y="-10">up</stem>
      </note>
      <note default-x="98">
        <rest/>
        <duration>1</duration>
        <voice>1</voice>
        <type>eighth</type>
      </note>
      <note default-x="123">
        <pitch>
          <step>D</step>
          <octave>4</octave>
        </pitch>
        <duration>1</duration>
        <voice>1</voice>
        <type>eighth</type>
        <stem default-y="-10">up</stem>
      </note>
      <note default-x="150">
        <rest/>
        <duration>1</duration>
        <voice>1</voice>
        <type>eighth</type>
      </note>
      <note default-x="175">
        <pitch>
          <step>D</step>
          <octave>4</octave>
        </pitch>
        <duration>1</duration>
        <voice>1</voice>
        <type>eighth</type>
        <stem default-y="-10">up</stem>
      </note>
      <note default-x="202">
        <rest/>
        <duration>1</duration>
        <voice>1</voice>
        <type>eighth</type>
      </note>
    </measure>
    <!--=======================================================-->
    <measure number="10" width="159">
      <note default-x="25">
        <pitch>
          <step>C</step>
          <octave>4</octave>
        </pitch>
        <duration>2</duration>
        <voice>1</voice>
        <type>quarter</type>
        <accidental>natural</accidental>
        <stem default-y="-14">up</stem>
      </note>
      <note default-x="59">
        <pitch>
          <step>C</step>
          <octave>4</octave>
        </pitch>
        <duration>2</duration>
        <voice>1</voice>
        <type>quarter</type>
        <stem default-y="-14">up</stem>
      </note>
      <barline location="right">
        <bar-style>light-heavy</bar-style>
      </barline>
    </measure>
  </part>
  <!--=========================================================-->
  <part id="P4">
    <measure number="1" width="390">
      <attributes>
        <divisions>2</divisions>
        <key>
          <fifths>2</fifths>
          <mode>major</mode>
        </key>
        <time>
          <beats>4</beats>
          <beat-type>4</beat-type>
        </time>
        <clef>
          <sign>C</sign>
          <line>3</line>
        </clef>
      </attributes>
      <sound tempo="120"/>
      <note default-x="124">
        <rest/>
        <duration>1</duration>
        <voice>1</voice>
        <type>eighth</type>
      </note>
      <note default-x="157">
        <pitch>
          <step>E</step>
          <octave>4</octave>
        </pitch>
        <duration>1</duration>
        <voice>1</voice>
        <type>eighth</type>
        <stem default-y="-45">down</stem>
        <beam number="1">begin</beam>
      </note>
      <note default-x="190">
        <pitch>
          <step>E</step>
          <octave>4</octave>
        </pitch>
        <duration>1</duration>
        <voice>1</voice>
        <type>eighth</type>
        <stem default-y="-45">down</stem>
        <beam number="1">continue</beam>
      </note>
      <note default-x="223">
        <pitch>
          <step>E</step>
          <octave>4</octave>
        </pitch>
        <duration>1</duration>
        <voice>1</voice>
        <type>eighth</type>
        <stem default-y="-45">down</stem>
        <beam number="1">end</beam>
      </note>
      <note default-x="256">
        <pitch>
          <step>E</step>
          <octave>4</octave>
        </pitch>
        <duration>2</duration>
        <voice>1</voice>
        <type>quarter</type>
        <stem default-y="-45">down</stem>
      </note>
      <note default-x="323">
        <rest/>
        <duration>2</duration>
        <voice>1</voice>
        <type>quarter</type>
      </note>
    </measure>
    <!--=======================================================-->
    <measure number="2" width="319">
      <note>
        <rest/>
        <duration>8</duration>
        <voice>1</voice>
      </note>
    </measure>
    <!--=======================================================-->
    <measure number="3" width="294">
      <note>
        <rest/>
        <duration>8</duration>
        <voice>1</voice>
      </note>
    </measure>
    <!--=======================================================-->
    <measure number="4" width="150">
      <note>
        <rest/>
        <duration>8</duration>
        <voice>1</voice>
      </note>
    </measure>
    <!--=======================================================-->
    <measure number="5" width="302">
      <print new-system="yes"/>
      <note>
        <rest/>
        <duration>8</duration>
        <voice>1</voice>
      </note>
    </measure>
    <!--=======================================================-->
    <measure number="6" width="122">
      <note>
        <rest/>
        <duration>8</duration>
        <voice>1</voice>
      </note>
    </measure>
    <!--=======================================================-->
    <measure number="7" width="222">
      <note>
        <rest/>
        <duration>8</duration>
        <voice>1</voice>
      </note>
    </measure>
    <!--=======================================================-->
    <measure number="8" width="122">
      <note>
        <rest/>
        <duration>8</duration>
        <voice>1</voice>
      </note>
    </measure>
    <!--=======================================================-->
    <measure number="9" width="227">
      <direction placement="below">
        <direction-type>
          <dynamics default-x="-2" default-y="-73">
            <pp/>
          </dynamics>
        </direction-type>
        <sound dynamics="40"/>
      </direction>
      <note default-x="16">
        <pitch>
          <step>G</step>
          <octave>3</octave>
        </pitch>
        <duration>1</duration>
        <voice>1</voice>
        <type>eighth</type>
        <stem default-y="1">up</stem>
      </note>
      <note default-x="44">
        <rest/>
        <duration>1</duration>
        <voice>1</voice>
        <type>eighth</type>
      </note>
      <note default-x="70">
        <pitch>
          <step>G</step>
          <octave>3</octave>
        </pitch>
        <duration>1</duration>
        <voice>1</voice>
        <type>eighth</type>
        <stem default-y="1">up</stem>
      </note>
      <note default-x="98">
        <rest/>
        <duration>1</duration>
        <voice>1</voice>
        <type>eighth</type>
      </note>
      <note default-x="123">
        <pitch>
          <step>G</step>
          <octave>3</octave>
        </pitch>
        <duration>1</duration>
        <voice>1</voice>
        <type>eighth</type>
        <stem default-y="1">up</stem>
      </note>
      <note default-x="150">
        <rest/>
        <duration>1</duration>
        <voice>1</voice>
        <type>eighth</type>
      </note>
      <note default-x="175">
        <pitch>
          <step>G</step>
          <octave>3</octave>
        </pitch>
        <duration>1</duration>
        <voice>1</voice>
        <type>eighth</type>
        <stem default-y="1">up</stem>
      </note>
      <note default-x="202">
        <rest/>
        <duration>1</duration>
        <voice>1</voice>
        <type>eighth</type>
      </note>
    </measure>
    <!--=======================================================-->
    <measure number="10" width="159">
      <note default-x="25">
        <pitch>
          <step>G</step>
          <octave>3</octave>
        </pitch>
        <duration>2</duration>
        <voice>1</voice>
        <type>quarter</type>
        <stem default-y="1">up</stem>
      </note>
      <note default-x="59">
        <pitch>
          <step>G</step>
          <octave>3</octave>
        </pitch>
        <duration>2</duration>
        <voice>1</voice>
        <type>quarter</type>
        <stem default-y="1">up</stem>
      </note>
      <barline location="right">
        <bar-style>light-heavy</bar-style>
      </barline>
    </measure>
  </part>
  <!--=========================================================-->
  <part id="P5">
    <measure number="1" width="390">
      <attributes>
        <divisions>2</divisions>
        <key>
          <fifths>2</fifths>
          <mode>major</mode>
        </key>
        <time>
          <beats>4</beats>
          <beat-type>4</beat-type>
        </time>
        <clef>
          <sign>F</sign>
          <line>4</line>
        </clef>
      </attributes>
      <sound tempo="120"/>
      <note>
        <rest/>
        <duration>8</duration>
        <voice>1</voice>
      </note>
    </measure>
    <!--=======================================================-->
    <measure number="2" width="319">
      <note>
        <rest/>
        <duration>8</duration>
        <voice>1</voice>
      </note>
    </measure>
    <!--=======================================================-->
    <measure number="3" width="294">
      <note>
        <rest/>
        <duration>8</duration>
        <voice>1</voice>
      </note>
    </measure>
    <!--=======================================================-->
    <measure number="4" width="150">
      <note>
        <rest/>
        <duration>8</duration>
        <voice>1</voice>
      </note>
    </measure>
    <!--=======================================================-->
    <measure number="5" width="302">
      <print new-system="yes"/>
      <note>
        <rest/>
        <duration>8</duration>
        <voice>1</voice>
      </note>
    </measure>
    <!--=======================================================-->
    <measure number="6" width="122">
      <direction placement="below">
        <direction-type>
          <dynamics default-x="7" default-y="-73">
            <pp/>
          </dynamics>
        </direction-type>
        <sound dynamics="40"/>
      </direction>
      <note default-x="25">
        <pitch>
          <step>F</step>
          <octave>2</octave>
        </pitch>
        <duration>8</duration>
        <voice>1</voice>
        <type>whole</type>
        <accidental>natural</accidental>
      </note>
    </measure>
    <!--=======================================================-->
    <measure number="7" width="222">
      <note>
        <rest/>
        <duration>8</duration>
        <voice>1</voice>
      </note>
    </measure>
    <!--=======================================================-->
    <measure number="8" width="122">
      <note>
        <rest/>
        <duration>8</duration>
        <voice>1</voice>
      </note>
    </measure>
    <!--=======================================================-->
    <measure number="9" width="227">
      <direction placement="below">
        <direction-type>
          <dynamics default-x="-2" default-y="-73">
            <pp/>
          </dynamics>
        </direction-type>
        <sound dynamics="40"/>
      </direction>
      <note default-x="16">
        <pitch>
          <step>G</step>
          <octave>2</octave>
        </pitch>
        <duration>1</duration>
        <voice>1</voice>
        <type>eighth</type>
        <stem default-y="-4.5">up</stem>
      </note>
      <note default-x="44">
        <rest/>
        <duration>1</duration>
        <voice>1</voice>
        <type>eighth</type>
      </note>
      <note default-x="70">
        <pitch>
          <step>G</step>
          <octave>2</octave>
        </pitch>
        <duration>1</duration>
        <voice>1</voice>
        <type>eighth</type>
        <stem default-y="-4.5">up</stem>
      </note>
      <note default-x="98">
        <rest/>
        <duration>1</duration>
        <voice>1</voice>
        <type>eighth</type>
      </note>
      <note default-x="123">
        <pitch>
          <step>G</step>
          <octave>2</octave>
        </pitch>
        <duration>1</duration>
        <voice>1</voice>
        <type>eighth</type>
        <stem default-y="-4.5">up</stem>
      </note>
      <note default-x="150">
        <rest/>
        <duration>1</duration>
        <voice>1</voice>
        <type>eighth</type>
      </note>
      <note default-x="175">
        <pitch>
          <step>G</step>
          <octave>2</octave>
        </pitch>
        <duration>1</duration>
        <voice>1</voice>
        <type>eighth</type>
        <stem default-y="-4.5">up</stem>
      </note>
      <note default-x="202">
        <rest/>
        <duration>1</duration>
        <voice>1</voice>
        <type>eighth</type>
      </note>
    </measure>
    <!--=======================================================-->
    <measure number="10" width="159">
      <note default-x="25">
        <pitch>
          <step>C</step>
          <octave>3</octave>
        </pitch>
        <duration>2</duration>
        <voice>1</voice>
        <type>quarter</type>
        <accidental>natural</accidental>
        <stem default-y="10.5">up</stem>
      </note>
      <note default-x="59">
        <pitch>
          <step>C</step>
          <octave>3</octave>
        </pitch>
        <duration>2</duration>
        <voice>1</voice>
        <type>quarter</type>
        <stem default-y="10.5">up</stem>
      </note>
      <barline location="right">
        <bar-style>light-heavy</bar-style>
      </barline>
    </measure>
  </part>
  <!--=========================================================-->
  <part id="P6">
    <measure number="1" width="390">
      <attributes>
        <divisions>2</divisions>
        <key>
          <fifths>2</fifths>
          <mode>major</mode>
        </key>
        <time>
          <beats>4</beats>
          <beat-type>4</beat-type>
        </time>
        <clef>
          <sign>F</sign>
          <line>4</line>
        </clef>
        <transpose>
          <diatonic>0</diatonic>
          <chromatic>0</chromatic>
          <octave-change>-1</octave-change>
        </transpose>
      </attributes>
      <sound tempo="120"/>
      <note>
        <rest/>
        <duration>8</duration>
        <voice>1</voice>
      </note>
    </measure>
    <!--=======================================================-->
    <measure number="2" width="319">
      <note>
        <rest/>
        <duration>8</duration>
        <voice>1</voice>
      </note>
    </measure>
    <!--=======================================================-->
    <measure number="3" width="294">
      <note>
        <rest/>
        <duration>8</duration>
        <voice>1</voice>
      </note>
    </measure>
    <!--=======================================================-->
    <measure number="4" width="150">
      <note>
        <rest/>
        <duration>8</duration>
        <voice>1</voice>
      </note>
    </measure>
    <!--=======================================================-->
    <measure number="5" width="302">
      <print new-system="yes"/>
      <note>
        <rest/>
        <duration>8</duration>
        <voice>1</voice>
      </note>
    </measure>
    <!--=======================================================-->
    <measure number="6" width="122">
      <direction placement="below">
        <direction-type>
          <dynamics default-x="7" default-y="-73">
            <pp/>
          </dynamics>
        </direction-type>
        <sound dynamics="40"/>
      </direction>
      <note default-x="25">
        <pitch>
          <step>F</step>
          <octave>2</octave>
        </pitch>
        <duration>8</duration>
        <voice>1</voice>
        <type>whole</type>
        <accidental>natural</accidental>
      </note>
    </measure>
    <!--=======================================================-->
    <measure number="7" width="222">
      <note>
        <rest/>
        <duration>8</duration>
        <voice>1</voice>
      </note>
    </measure>
    <!--=======================================================-->
    <measure number="8" width="122">
      <note>
        <rest/>
        <duration>8</duration>
        <voice>1</voice>
      </note>
    </measure>
    <!--=======================================================-->
    <measure number="9" width="227">
      <direction placement="below">
        <direction-type>
          <dynamics default-x="-2" default-y="-73">
            <pp/>
          </dynamics>
        </direction-type>
        <sound dynamics="40"/>
      </direction>
      <note default-x="16">
        <pitch>
          <step>G</step>
          <octave>2</octave>
        </pitch>
        <duration>1</duration>
        <voice>1</voice>
        <type>eighth</type>
        <stem default-y="-4.5">up</stem>
      </note>
      <note default-x="44">
        <rest/>
        <duration>1</duration>
        <voice>1</voice>
        <type>eighth</type>
      </note>
      <note default-x="70">
        <pitch>
          <step>G</step>
          <octave>2</octave>
        </pitch>
        <duration>1</duration>
        <voice>1</voice>
        <type>eighth</type>
        <stem default-y="-4.5">up</stem>
      </note>
      <note default-x="98">
        <rest/>
        <duration>1</duration>
        <voice>1</voice>
        <type>eighth</type>
      </note>
      <note default-x="123">
        <pitch>
          <step>G</step>
          <octave>2</octave>
        </pitch>
        <duration>1</duration>
        <voice>1</voice>
        <type>eighth</type>
        <stem default-y="-4.5">up</stem>
      </note>
      <note default-x="150">
        <rest/>
        <duration>1</duration>
        <voice>1</voice>
        <type>eighth</type>
      </note>
      <note default-x="175">
        <pitch>
          <step>G</step>
          <octave>2</octave>
        </pitch>
        <duration>1</duration>
        <voice>1</voice>
        <type>eighth</type>
        <stem default-y="-4.5">up</stem>
      </note>
      <note default-x="202">
        <rest/>
        <duration>1</duration>
        <voice>1</voice>
        <type>eighth</type>
      </note>
    </measure>
    <!--=======================================================-->
    <measure number="10" width="159">
      <note default-x="25">
        <pitch>
          <step>C</step>
          <octave>3</octave>
        </pitch>
        <duration>2</duration>
        <voice>1</voice>
        <type>quarter</type>
        <accidental>natural</accidental>
        <stem default-y="10.5">up</stem>
      </note>
      <note default-x="59">
        <pitch>
          <step>C</step>
          <octave>3</octave>
        </pitch>
        <duration>2</duration>
        <voice>1</voice>
        <type>quarter</type>
        <stem default-y="10.5">up</stem>
      </note>
      <barline location="right">
        <bar-style>light-heavy</bar-style>
      </barline>
    </measure>
  </part>
  <!--=========================================================-->
</score-partwise>
